<mxfile host="app.diagrams.net" modified="2022-03-03T02:43:42.914Z" agent="5.0 (Windows NT 10.0; Win64; x64) AppleWebKit/537.36 (KHTML, like Gecko) Chrome/97.0.4692.71 Safari/537.36" etag="FnDQgvUH_g_oTJvd3kWr" version="16.6.3" type="github">
  <diagram id="kgpKYQtTHZ0yAKxKKP6v" name="Page-1">
    <mxGraphModel dx="1508" dy="882" grid="0" gridSize="10" guides="1" tooltips="1" connect="1" arrows="1" fold="1" page="0" pageScale="1" pageWidth="850" pageHeight="1100" background="none" math="0" shadow="0">
      <root>
        <mxCell id="0" />
        <mxCell id="1" parent="0" />
        <mxCell id="b5WE40WeDKXt45XbikNv-24" value="" style="rounded=1;whiteSpace=wrap;html=1;" vertex="1" parent="1">
          <mxGeometry x="-77" y="404" width="335.5" height="61" as="geometry" />
        </mxCell>
        <mxCell id="3nuBFxr9cyL0pnOWT2aG-1" value="手机终端" style="shape=umlLifeline;perimeter=lifelinePerimeter;container=1;collapsible=0;recursiveResize=0;rounded=0;shadow=0;strokeWidth=1;" parent="1" vertex="1">
          <mxGeometry x="306" y="-319" width="100" height="300" as="geometry" />
        </mxCell>
        <mxCell id="3nuBFxr9cyL0pnOWT2aG-2" value="" style="points=[];perimeter=orthogonalPerimeter;rounded=0;shadow=0;strokeWidth=1;" parent="3nuBFxr9cyL0pnOWT2aG-1" vertex="1">
          <mxGeometry x="45" y="70" width="10" height="190" as="geometry" />
        </mxCell>
        <mxCell id="3nuBFxr9cyL0pnOWT2aG-3" value="dispatch" style="verticalAlign=bottom;startArrow=oval;endArrow=block;startSize=8;shadow=0;strokeWidth=1;" parent="3nuBFxr9cyL0pnOWT2aG-1" target="3nuBFxr9cyL0pnOWT2aG-2" edge="1">
          <mxGeometry relative="1" as="geometry">
            <mxPoint x="-15" y="70" as="sourcePoint" />
          </mxGeometry>
        </mxCell>
        <mxCell id="3nuBFxr9cyL0pnOWT2aG-4" value="" style="points=[];perimeter=orthogonalPerimeter;rounded=0;shadow=0;strokeWidth=1;" parent="3nuBFxr9cyL0pnOWT2aG-1" vertex="1">
          <mxGeometry x="50" y="120" width="10" height="80" as="geometry" />
        </mxCell>
        <mxCell id="3nuBFxr9cyL0pnOWT2aG-5" value="EMQX Broker" style="shape=umlLifeline;perimeter=lifelinePerimeter;container=1;collapsible=0;recursiveResize=0;rounded=0;shadow=0;strokeWidth=1;" parent="1" vertex="1">
          <mxGeometry x="486" y="-319" width="100" height="300" as="geometry" />
        </mxCell>
        <mxCell id="3nuBFxr9cyL0pnOWT2aG-6" value="" style="points=[];perimeter=orthogonalPerimeter;rounded=0;shadow=0;strokeWidth=1;" parent="3nuBFxr9cyL0pnOWT2aG-5" vertex="1">
          <mxGeometry x="45" y="80" width="10" height="160" as="geometry" />
        </mxCell>
        <mxCell id="3nuBFxr9cyL0pnOWT2aG-7" value="return" style="verticalAlign=bottom;endArrow=open;dashed=1;endSize=8;exitX=0;exitY=0.95;shadow=0;strokeWidth=1;" parent="1" source="3nuBFxr9cyL0pnOWT2aG-6" target="3nuBFxr9cyL0pnOWT2aG-2" edge="1">
          <mxGeometry relative="1" as="geometry">
            <mxPoint x="461" y="-163" as="targetPoint" />
          </mxGeometry>
        </mxCell>
        <mxCell id="3nuBFxr9cyL0pnOWT2aG-8" value="dispatch" style="verticalAlign=bottom;endArrow=block;entryX=0;entryY=0;shadow=0;strokeWidth=1;" parent="1" source="3nuBFxr9cyL0pnOWT2aG-2" target="3nuBFxr9cyL0pnOWT2aG-6" edge="1">
          <mxGeometry relative="1" as="geometry">
            <mxPoint x="461" y="-239" as="sourcePoint" />
          </mxGeometry>
        </mxCell>
        <mxCell id="3nuBFxr9cyL0pnOWT2aG-9" value="callback" style="verticalAlign=bottom;endArrow=block;entryX=1;entryY=0;shadow=0;strokeWidth=1;" parent="1" source="3nuBFxr9cyL0pnOWT2aG-6" target="3nuBFxr9cyL0pnOWT2aG-4" edge="1">
          <mxGeometry relative="1" as="geometry">
            <mxPoint x="426" y="-199" as="sourcePoint" />
          </mxGeometry>
        </mxCell>
        <mxCell id="3nuBFxr9cyL0pnOWT2aG-10" value="return" style="verticalAlign=bottom;endArrow=open;dashed=1;endSize=8;exitX=1;exitY=0.95;shadow=0;strokeWidth=1;" parent="1" source="3nuBFxr9cyL0pnOWT2aG-4" target="3nuBFxr9cyL0pnOWT2aG-6" edge="1">
          <mxGeometry relative="1" as="geometry">
            <mxPoint x="426" y="-142" as="targetPoint" />
          </mxGeometry>
        </mxCell>
        <mxCell id="b5WE40WeDKXt45XbikNv-1" value="App Push服务" style="shape=umlLifeline;perimeter=lifelinePerimeter;container=1;collapsible=0;recursiveResize=0;rounded=0;shadow=0;strokeWidth=1;" vertex="1" parent="1">
          <mxGeometry x="652" y="-319" width="100" height="300" as="geometry" />
        </mxCell>
        <mxCell id="b5WE40WeDKXt45XbikNv-2" value="" style="points=[];perimeter=orthogonalPerimeter;rounded=0;shadow=0;strokeWidth=1;" vertex="1" parent="b5WE40WeDKXt45XbikNv-1">
          <mxGeometry x="45" y="80" width="10" height="160" as="geometry" />
        </mxCell>
        <mxCell id="b5WE40WeDKXt45XbikNv-4" value="App Push服务" style="shape=umlLifeline;perimeter=lifelinePerimeter;container=1;collapsible=0;recursiveResize=0;rounded=0;shadow=0;strokeWidth=1;" vertex="1" parent="1">
          <mxGeometry x="837" y="-319" width="224.64" height="369" as="geometry" />
        </mxCell>
        <mxCell id="b5WE40WeDKXt45XbikNv-5" value="" style="points=[];perimeter=orthogonalPerimeter;rounded=0;shadow=0;strokeWidth=1;" vertex="1" parent="b5WE40WeDKXt45XbikNv-4">
          <mxGeometry x="45" y="80" width="10" height="160" as="geometry" />
        </mxCell>
        <mxCell id="b5WE40WeDKXt45XbikNv-3" value="" style="shape=image;verticalLabelPosition=bottom;labelBackgroundColor=default;verticalAlign=top;aspect=fixed;imageAspect=0;image=data:image/png,iVBORw0KGgoAAAANSUhEUgAAAzcAAAJCCAYAAAD9STkcAAAgAElEQVR4nOzdf3RU5aH/+3e+18K0kUP4SpNIKwz1EqKChCbHBtPWQVfJwBdOArQycKqMx0LmrMOPaeFiKApR/BE85hB+nNtJaK+DpWaoBUJDMdCljNZIShONBr+GcFpGbCHJwcVEjB3w3jX3j8mPSTIzCT9CYPN5rTVLZvbez/Ps7TyZ/Znn2XvigsFgEBERERERkevc/xjsBoiIiIiIiFwJCjciIiIiImIICjciIiIiImIICjciIiIiImIICjciIiIiImIICjciIiIiImIICjciIiIiImIICjciIiIiImIICjciIiIiImIICjciIiIiImIICjciIiIiImIICjciIiIiImIICjciIiIiImIICjciIiIiImIICjciIiIiImIICjciIiIiImIICjciIiIiImIICjciIiIiImIICjciIiIiImIICjciIiIiImIINw12AyI5exYCgcFuhVzPTCYYMWKwWzEw1D/kcql/iESn/iES3fXQP+KCwWBwsBvR4exZ+Mtf4CtfgS99abBbI9ezL76Azz+Hb3zj2u+E/aX+IVeK+odIdOofItFdD/3jmhq5+ctfwGwe7FaIkfzlL5CePtituDLUP+RKU/8QiU79QyS6a7l/XDPX3Jw9C1/5yjUziCQG8ZWvBDl7drBbcfnUP2QgqH+IRKf+IRLdtdw/rplw8/e/BzVUKlfckCHw+efX/x919Q8ZCOofItGpf4hEdy33j2sm3IiIiIiIiFwOhRsRERERETEEhRsRERERETEEhRsRERERETEEhRsRERERETEEhRsRERERETEEhRsRERERETEEhRsRERERETEEhRsRERERETEEhRsRERERETEEhRsRERERETEEhRsRERERETEEhRsRERERETEEhRsRERERETEEhRsRERERETEEhRsRERERETEEhRsRERERETEEhRsRERERETEEhRsRERERETEEhRsRERERETEEhRsRERERETEEhRsRERERETEEhRsRERERETEEhZuBEPDT2hp6NB+vpqrKS9V+Ny5XMWuWWMjJNrOmKtBtk+bduTy0u6nzec2mOEaO7P7YVNO7qpNluSza7Qt7pQ7Xg/n0KL5786oKWdJtmzA1hYx8yEPzReyuGF+k92PX+6SJ3Q/FMXJkGq76aCX4KHswjpEjc9nd480VOF7OpiUWMu8MlTs5286m/Q20hq9T5eTOkZlsqu/xxj7p5sGRaTxVE/kN37Pdk7PtuOv9l3QMugvtc3iflRtT62uO6O/9msLufWZyJks2VXIyfJUI79FNr0X5+wzQ7OGh8DLvTOXBFW7qwzpM8+7cKH/He79vQ/0vk8kj4xg50kz2Ehdd3SzG+7zZw0Ph/bmmkJF3ppKTYyEnM5mRm6p773/Yo3eZPsoesrP7ZIwPL5FwPd+DAIFqNmXHkb2pmp7vpIvqqyPDP68i9YMANZsyGZldSM+Pn5j1yFWhcHPF+CjLae8QXx/B7VMyefjhXBY/lMsadyX1J/0MH53GjPmFvPBSHavSTX2W+ERlkDNnQo/KJyKs0FrJJncqeTPMXS+95mLz6xvI+XrPTlpIRzYyZdm4/9V8dnd8wtYUhj6Iemr28JCCjnRY9ip//vPZrsfWXJLCFicmNrF5j7fXBwoA9eWUHE0iscfLrVX55ExxUjPOQdHe0/z5zyd4aXkaNWvuwLKkvPMk0JRVwJaFPtav94SdGDaxf30+R/OKWZURoz91tvsE2+YHeH6qjbKT0VcX6T8/VXuqsdnMeKrqoqzzGDvb+8w72xwM3T8d65oe/ST8PWo3sX9eZq8vwLrLYcvhUJkf7C0m6+N8pi5yc9Fv65NuFuUUcjKrmL1/Psuf3yln+YRKqo5ebEHt0gso3euldFVm12vTy/jgTNdnWcfn2bjRyWEb+ti/xMLSV7ez+JtfjhqIIn3BJ9LFx+6luZSMLmPb8ky6fypcXF8NPdzMSIq85snddh4uMVO6LZ/uHz/9qUcGmsLNFWNm9s6wP+D/u4G97X/kb5vuxOFwMn+GhaysTMYlJTC8vTN0fGt31+K9vLr41ov4Ax6g6vlCRj9T0NWxAtW43Q2kP3GYv3Z+kJxl77L7mF1qIyOsrXOWWXj19YYrfRDEyIYnMLzbo/tHR7rNzoTNbl5v7blhgKo9hSTa7KSHv9xayVOL3Iwu9fLL5TayxiUzfLiZiTOc/PLwYWYfnc2azm/KEnhgeTHTX89n02uhkZfW1wpYWWXhhWUWYn5V0NleMxn2Qp7IOkDN8SsxeiM3vOZKyl63YV+ey/DNnigj5l19ZnSGnaIXNpJY4qEqvJ+Ev0fnu3jh6WRKdnvp1ZXCDP2H0DZJ46ws3+bC9nox+y/ym+L6/cW8OruQZ+ZnMnp4QugLOEc5joy+t40swKetfj49H2udBo5WTSJxaPvT1jpcD1pwj8tnWdZ9PFF5tlsQOvPnD9liG0P6wleZfcntEuMLULPJxuKTTl7aYmN0z8UX2Vc7HpE+WwI1hSxa7CPvJTdzelbUr3pkoCncXEGmvgdjeslYHuTMmdOUTofppac5cybI8n78AW99zcnziYXkZcDxMjvZKzzsL3Fz2wuVLCefpWUNBPCxf0UumxKL2TInNLpT77aEpg087qFlj4OcHBf1QxPIej0/9Pr6SrI+dbE4x0LO4gJqL36X5EY1wYbdtp39VT2CQ2slZZut2GendXv55P5itk8o5Ik5ZnoxZZK3LIdXt4dN4RltY9XTZravd1HTWo17fQnpTxdG/WYtMj+trUmMTkxof17NppFxbHqtDveiVO4Mm+IQOO5hzYOp3Nkx9WeNh+NRP6h87F6UzJ0PFodN6fFT47K1T7czd9++ppCRIwt5rd7FosxkTQW9Tp183U1tnoWMcWlMT3TzWm0/zmQSk7mNJlpjrJqYaIYWf+RR0EiGJzOO9zgfM1RE2Gx4ArT6ucjNoqstZOXDuayMMBOga/qdlf1ZxcyfCOBj98pihj9Tx6+XO1j7UjHDN2WSs8ZDfbOPKredHIuDozO8HCiy9j5hFWkXfSSlffml9NWIFXlY+nAxo0s9LI9Q0RWrRy7LTYPdACOp2RSHdX2kJXsZubj7K9NLT/PLOe3D8q3VvP4qMLu/NfnYX1JC1euVTHF/xMeJeexc5Wd/Sz5FSSZY7qFlhYWvL4WFL3n59Yyu4f+Jdi977aF/129KxT3BxsSJCezd67i4nRXpJZn75z/Gyk3lnJxh7zwRObnfxevL8nkhsYmyznUDfHz0AFmzXVFPWJLGWZhQVcfHARjd/hky0V7ME54pLLKM4ePEjRyKFIyi8lNfVkjJuGL2Tuy+pKqkmAl5lRx+IYGhw4H6YnKmephQ6uHQNjOmgI/Xnncw5eEA7/za3qPNXd8YVu51MtEUquu1Fak8P9zNr9/xMBofrz1vI+f5ZN5Z2zHS5KWkJI28XzfwwnATwy9iT+Ra4KPKc4DZq8oBE1m2ZKaWVbI8Kzf2/8vzAT4lmeExvgw7f94PiZG/NY4oEKCFSdw2tO9Vw42+38ns9bN5cEUZW9faGHe5b8L0Akp/aYPdudz1cfdFGcuDnFnecwMzc7a52/8doDVgYoI9n/rn5zP1LoBvsay0kAdug9ZWPwxNiHnc5Mb0aVX7SEqlt/dICnDJfbVXRV42LZrPybzD7I342XOF6pHLppGbKyg0CtP98UFpTueITPijM9gQOvk7OmESLR47i1x1/fi2zsz8Xwc5804hGcyjdJuLBx5wUDQ/mdbjlbiX2HGfd1JaaqdlTSYPrihm92t1nGwNEKhyMvmpasBPy8ljjB7uw53TPpqTYyEnJ5PJI81kh7+2plLfKgusn9LHBcGh67mWtYRPj6ljf0kTy2b3nDrmp/kk/MPQGGcqicncho/m8Lk5pkxm52Xz8ccfYVtuZ2LUjSO1ewRTl0LeMkuvQNVyv5O1D5jbpyH4ec39Y84/7aJoThpJwxMYnpTGnGcKWXY0nz3dpo0GIn9jWO9mfW0+L6y1hoKZycwDdgfjNpdTG3ax9v15hTwwuvcUP7kO1JdTUrWcGe3XT07MsjPBU959ulkPgdZqXCvzCTzhICvi2U6A1ppiVq4P8ITd0r8TokAD+9fks2d2AbP71SHCJOWyrXIPGf/lZMqUVBa5vBH/1ndMme72uGs+r/anjtp8rHcmkxn+mZKZHPr7cdzNopxcHnrIQs6SfMr2VNNiSmP5r//OmTN/58/vuMg4X8f+EjsPZ6dy+9fjGGnJ73UBt9zIqnn+8dXUTncwO9q1l/3uq6uxRrxpTkjt807W1+Zgn93zep6LrUcGmkZuBlvAS8n6ZGzLTFQlFrKsJZ81+13M76sznPSwZFEls/d6mJHop7XGw8r11STabNifqcTe/qk4Z46D46+V497jYPtxF3tnZDKhtoGTJNPyXzncdlsac/Z6sXc0p8rJvBobO3tdjCc3vGWv8uflYRcKD02IsFIaM/ISsO7xYp9ogSoPmxOdVE6E7mdNJoYnwqfnY5yltDTxMamMDp921lrJpvV1TJ+ejWeTi7z789tHSvrT7gAtRytxrUxj0fI6toWNaM7OCJ8y5+Poq3D//O7T6DClMiG9mT0nm+i4gO3TV/NZtCfA0++Ud/vGsPnjao4e3cnUkT/u0ZicsLBmI+NiT0blmlFf5ebowkImdLz/JmYyO/HHuPcXMGN++Le6q7GOXN3+7zHcn+dm2/K07n9f109hZMeo/23Z5G3xsDzmG3svi++KIzQhIIn/c3YBO7d03eDDNDw5+qY9jc7lmb1WllW5Wf+8jbv2OKnc231qz/QtH7J1Ro8yW8pZMqW87/LTC1g1Op/jMypZm2UCAlQ9lUrN6GQYZ2dbx1SCDs3lLMrxsszrZOLoNGaMTmPGfGfn4kDg0qaAi1Fl8vRLNl59eD6LNqWyN8K5S//76mPs/HN+2PXJ3UfU058uZ/aruSxeVMi4vb2nv/W/HhloCjdXSPQpaRBpWhoA08vYlVVMzTIXeYkFVJHAREc5RTSxuyyH23reWipM/R4nr7ckcHyphRLg/icq2dY+texkWS6ZHshKz+WBB9KYkGHjmQe6PkAyjrs43mzmaFUms5Oa2P3QraxvuY/R+KhqSSZrdCXfXB/gtiwzrcffYP5L/bsOSAyu/QLLvozOsjNhqZvXl6dB2Qbut5+NMPUsgXEZ91G1x8vJ+T2neYU0H/dydLqN2zpfCVD1vJ3t6cW8szWZ0VOmstJt5YAjLcLWkds9PMvO2lXV3L65kidmRK4XAtBCv741/4fb0khMLObVGh9zRod9eAUCML2Md34Z4cJWgI8jvSjXjYCXPZvfg5bp3L69x7KScurnO8NGFcNOmKJNqwr74mBolIuYu8thy2E3MxIjlzl8uBle9fEx0P2StNCXCb3DgYmkLAdb91q5/6GxrHRb8Yb3q6ER+n4gQitrC1ic44LmBpjfVXbWDDvrO6bnnCzHVeVk1dr2xc0eHoowCrSn1xcDoTuI6rNIernNxpaXfORYc1l6WzXbwqeMXVRfbb+RQNSKzMzZUs7HOVN4eKmZym1hf98vqh4ZaJqWdoVEmpIWa1ramTNBzvzSxtjRDp6xp9FtqnSggdraTEZHOitqrWTNIg/Dlzfxv99t4MBeL3v3esmb0LXK6PnleEsLmZ8BVWVOVpaF3xUtmXFZ1RyvbeLkdHPnrXntz3jZ+4wD7MXsLS0gHQfP7PWwqtvtrUT6YXQudtt2ysrc7H/9MebfHzkQjb7fwfTX8yl5LcKdywLVlGyuZqHd2nlyFqgpYE1JGluesTF6uIVVW/L4+PGCrlua91es0SIAUpmwEPbU9LiNZ6CBo7WTyBoX9g32BDtbXnJycrGNTWFzZZLGWZjwaiVHNR3BkAK1lXhaFlL6ztnut0c/9DPuP+qmqttdy8LuvhQttfRxd6ZIOu6WFrHM28xMx0NNz7untdbx+qv3cf+EaCM7ZjJm3MfRPvtIFLNd7Ox5K2hgaJaTF847ef61Bnavd5HxjKPrRC/Jxi/DPhcPPT2J+7ec6PF5eZrS6TncdluvGkUAMGXks63UQlWPv8UX11f7U1Emy7eVkVU1n0Vhv6VzxeuRy6JwM8hGz7D3Gtpsfd3NHlsmEyJtEPBzMgDnW33Uv+bBvcZOTmYyU1Z6aT7p5qHsXFa4PNR+msyEGXae2erl192+2U7mtnQTx/eX82qGWXefkf5r7fpx2tAj2glQAvfPf4zax3/M0WU2sqKdrSXZeOYlK/vnpfGQq5z6k35aW33U7y/moSlTqEp3s+qB9mAUqOb5lRsY+nQh89vftMMfyOfp6Xt5fH157GvCOtvbxPHXClm0cjvTF8a681ICWfbnGPq4gxW762hu9dPaXMfuNfl4snpf1xD6UDVTYrV0fahOzCXv/u2sXOmmvjlAIODnZFUxD7ki/J6UXGf8VO3eQEuenRmje9w6dmIutunvRf+9p6slKRdHXhOPP5yL67UGmlv9nKz38NTDDl5fmM+M9jd/zSYLS9wdfa+J41Uu1q9vYOGE1IuusrmljsSoN0FIZsYLxbTOu4OSLFfEu0xB6HevVu6x80SvKTy6yEb6NnqOm5eegPUP29u/9BqgvjraxpaXnoP1uSzd7Ru4euSSKdwMsE8/vcjf0zjpYeVKP0/n9f7tjpbzAfjYR23ief6wxEbJ6wESbQW85G3i3a1Wkkbb2fbrQuYkNrF7TSbfvDM1dDOBGl9Ypwower6HOYlNTDhajqvMS8vl76bcCDZP5/bbR4Q9ion2k0ymLBvLJmSTNyP2lLHRM9x4DxeTcbSQh785gttvz2RRiYejH48hcVznDzhRX+JkM4/xjD28PDNzVm3ktj0ONsf6MYHOdt9Kzhov457+kG1zYl+TYJqYz68POcBjY+rtI7jd6uD1cYUc2pZLpDtP9/5QNTN/27s88Q8eHr7ry3z962ms3G1i+fzMCFvLdaXVy57tSSybEem6xGQemL+QFk8lg3sHWBNZzzRQmZfAnpV3cNftI7AuctEy3cOhImvntJtxWTaGvtbR99J46Plq0rfVUfRA39NPuwvwX1VebBmhUNTz1tLnW+twLcqHp39Gxp5cHnJ5aQ4/Pq117F5jIbssla17I0zfOellz6s9rr8T6cVExnIPpVleFi8qpKZ54Ppqt5Ei78Hr4G/CjSUuGAwGB7sRAKdOBfn8cxgxIm6wm3LZ6l1pTH38vdCTxPt4emcljj6uem7enctKiln7aT6bEgvZOqP7N1etrzmYMq+EFsawcGc/P3wCPmr2l1PmqSNri5s5SVDzlJk1tWbGTcglIz2VcROTaX5qMh8v7zmXOXQtzuKjy9npLeaB6/Q+hn5/EJMJvva16/t9ZaT+0S/NXlwr7TzeYqV0ayFzxl3syZb0h/qHXBGBOlxLq8naksbr8+y4m83kbSvHcb6Ykc83sDAxgazlBe392M/x/S6e3+Rj+kvFJJVYearFyvI8BzMmdvXz7texJpH1dCU7HWlX9UY36h8i0V3L/UPhZiAE/LS2f3XVv4tDZaBcy53vYhiqf8g1Q/1Drllhn6OD9fs26h8i0V3L/UN3SxsIJv3QmIiIyCXT56iIXCJdcyMiIiIiIoagcCMiIiIiIoagcCMiIiIiIoagcCMiIiIiIoagcCMiIiIiIoagcCMiIiIiIoagcCMiIiIiIoagcCMiIiIiIoagcCMiIiIiIoagcCMiIiIiIoagcCMiIiIiIoagcCMiIiIiIoagcCMiIiIiIoagcCMiIiIiIoagcCMiIiIiIoagcCMiIiIiIoagcCMiIiIiIoagcCMiIiIiIoagcCMiIiIiIoagcCMiIiIiIoagcCMiIiIiIoZwzYSbL385ji++GOxWiNFcuABf+UrcYDfjsql/yEBQ/xCJTv1DJLpruX9cM+FmxAj4/PNr8yDJ9evzz+MYMWKwW3H51D9kIKh/iESn/iES3bXcP24a7AaE+8Y34C9/ga98BYYOHezWyPXs/Hn4/PPQe8oo1D/kSlH/EIlO/UMkuuuhf8QFg8HgYDeip7Nn4e9/H+xWXLv8fj8ACQkJg9ySa9eXv8w1+43C5VL/iE39o2/qHzcu9Y++qX/cuNQ/+nY99I9rauSmw4gR1/6BG0wXLoQ636hR6nw3IvWP2NQ/bmzqH7Gpf9zY1D9iU/8whmvmmhsREREREZHLoXAjIiIiIiKGoHAjIiIiIiKGoHAjIiIiIiKGoHAjIiIiIiKGoHAjIiIiIiKGoHAjIiIiIiKGoHAjIiIiIiKGoHAjIiIiIiKGoHAjIiIiIiKGoHAjIiIiIiKGoHAjIiIiIiKGoHAjIiIiIiKGoHAjIiIiIiKGoHAjIiIiIiKGcIOHm3Mc27WCFRVnLm6z+iIyllZwpvNpBvdmL2DBgvBHNvdmFFHfq0ovBXNf7nzdt8vO0gOn+qjwGG57AW9Ha2Z9ERlFvWri/NvPkv3s25zrXO1eimrPh56cOsAK+7Psqo9Q6JkKlna2/QwVSzPIyIjyCDsOEQqiYmkGEZomIiIiInLF3TTYDRgs53xvs+u5n7K19jOmrFt92eWlL9nMllkju144U8FSa2Pvet+u4GD6AkI1HsP78ijmukfFLPtUxVbKLnzCLcsWUHSqkRELt/H41BF9tOg8R737uM+ygmGhUvA1mjHPHRpaPCqboi3jeXvXkyytX8ILC8YzNGpZU1hXuYVZI+FMxVKsjYupWTExtI9P9tEMoOyRDMoivD7/xRpWTOx7exERERGR/rgxw82ZCn66YCssXsFCnqR3BIm6IRVLrTx5OPTMmvEk81+sYRpQu3UZC7qdwX+Cj2k9tj/Grq0+Fr+QzlDgnHc7pR8d5MLUg5Grm/8iNfN9lPoW89uXJ3Lu7WdZ412CY+oI4CwVSxew9RMzt5w/BZ+8zYJaONU4ihWVW5g17CgHDs4ke0V7ZDnvo742nWxzWPnDzNxr38K9fe73YZ60ZvBk2POMjn2dsq7PrRViRERERORquDHDzchpvHBoFkOHnqGilosINyOZtaWGWfVFZJSmULllFiMBJtbw9oq+tz5TsZWtp+/lxfHA+VpKt9zMC1U1pBwMGw3p5hQHflpA7cFPWHD4Fj5p/IRbUo6y7uFGJj++jQzSWbJ5C7NOF5FxcBovr4CijNLQpudOcfqz3eRl7e5W4u6MSGMoIVPWvcy0gws6w9vhjDKYv451/R25OVPBUuuTHO5Z8OHeIzcKPCIiIiJypd2Y4YahDI0+B6vfLpw/z6mDK1ng/oRRQ+ET3y0s+e06ePKfQiMqnOfULXZ+s2UWI8+/TelzhwEzcJ76rUX4Fm9mxVBiXLMyiuxnCzh68CDTXp7GwYyDTHt5BafXZVDVV+NGzmJLzazOp75ddl6+tYSf3tvHjs+qYVb7lLrFNSuYyBkqlkYZWYpoPi/WrCB6bgmNfvU/UIqIiIiI9M8NGm4u3flTx/AerIfDZfzTVB/PrIZZBS+zYuIZKjqHMdpHVEbWU7TUB5zhwMqV7EufwpTDwPlGas8tZF122DU6ZY/QfVCla7QEKihY8Daf8AlvL6jli7/C5KyLafUxvO6j7D6dxe6Iy/sKJJc3LU1ERERE5GpQuLkoPvY9+SRvMwTSV/PbkrkMqVjKcwULqO0YuQGglq3LFlDWPnKzkGGMTF9Myfx0DmYdhKETsRf0iBLzX4wwLa3DLAoijty019N5zc1QSEkhvcfW52t3cXjuahaeugX7Ty3tNxgIOVWxlO/XW0iJus/tU/Han3WblhZRGY/EmPrWubuL+1xFREREROSiKNxcFDNzS15mbn0RGaVDGAKMnLUFb+fsr/bRm3Vvc2Bk9y1H2u1APRczwasvw26Zxup1BVg6r7mJFDh87CuFhZvnMvFwAQUVKRTNar8726kKnisaxrMV6THulHYRekyFExERERG5mhRuLscZLwXLSsOuH/kEX+MnXPj+XMpGdcWFlMWbKbCMjFRCl17T0tovuk85x/mI09JGYCkoCK14OvQf366lVKS8wNKJXXWfOVCEd+Y6tgwFLKuxF+WxYtdqVqc38pzdjXnLy1iGEcE5Gt92U9p4DvPW7T1uCBA2LS18+twxNyuOTqNo7ijqX57LrlvcFGQP43ztFhZ403l5xb0M5RQHVpQx7NkV9HX5j4iIiIjIxVC4icC3awVbzi/m2Zi//QKMtFDwsiX073P17HLX4ht2GCaM4ZZ7l2JPj5gaIos2Le3UJ3x0q51nX05nXx83FDBPSMf73D7muucyCuBUBU/um8bqLR3BaigTlxSQnvd9rM/BlHW/ZcXE7nt4/lQ9B8t2UTvkNDROY8XcezHbl9JxM7jo09LOULF1FxOX2AFIMaezb18tK7ItDBtjZtSuwzSuuJeJjGLivfX8dJ+Pe+eaERERERG5Uv7HYDfg2nOOU/W1HG48zYVoq4QvOH+K+l3PUlAB05bOJGXIEFLm/5RpZ4pYWlDBsXOX15pTh3dxau4UxndVSFtbxz/PccZXT239KXi7CPsyN6cbi3DXnodTXgpWHmTa6lmM4jynjh3g5Z/asWQX4Jv1Ir/9bQnpB5cyd+mz7Hrbx5nzoX33lm6lccJqDrx9gC32ezH3M5+df7uUomErmNve0KET72XawYPUngNGTsRi9lJ7LLRs1MylpGx5mdrzl3dsRERERETC3eAjN90vlg8Zxr0FXt6OuP4x3LP+ma2nb+a+Z37D0Not2F8extLVP6VgJITf1HlUdgFb0mt5+Tk7ZdNe6HtaWkRnqD+WzrMrQolh8eYK8hY8woXhdv6Ng9j/ycst903h3nQ7vykxc+vIYVw4UMDSY3/ijQNeJj77AtMu7GJp9ssMuW8Bcxe/wIFnR3aORtm37GL+qXoO7ipl5ZPnmFXyAnMLSsgOa0F9UQaP9Lo/wOHuU+jml/LiLZ+xdHHYzQqGpTNtpptPPgGGmUmZdgvez84Bw86a5lgAACAASURBVGBoOguWVlD7CaSPuoTDIiIiIiISQVwwGAwOdiPk4vh8PgDMZk3rEulJ/UMkOvUPkejUP4xB09JERERERMQQFG5ERERERMQQbvBrbm4cx44d47PPPuv2WmNj6CbWKSndf8IzPb3nz4CKiIiIiFz7FG6uc+fOnaOxsbHzv6dOneL06dOd/71cN998M+PHjyc9PZ2UlBRSUlIYNUp3ARARERGRa4/CzXVq3bp1fPDBB71ev/nmm0lJSSE9PZ1bb7218/Xx48dz8803d1t3/PjQXdiOHTvW7fXa2trOf58+fZpjx45RWlrarY6OwHPfffd1liMiIiIiMpgUbq5TwWCQRYsWAaFpZMOGDbvkkJGRkRHzeYeamhoaGxtpbGzsDDylpaXceuutLFiwgJkzZzJs2EX8cKmIiIiIyBWkW0Ffh66VWxWeO3cOr9dLRUUF77zzDgAWiwWbzRY1IIkMtGulf4hci9Q/RKJT/zAG3S1NLtmwYcOYNWsWpaWl/Pa3v2XRokU0NDTgcDgoKiri3Llzg91EEREREbmBKNzIFTFq1Cjy8vIoKyvDZrNRVlbGggULqKmpGeymiYiIiMgNQuFGrqhhw4axcuVKfvWrX3HzzTfjcDgUcERERETkqlC4kQExfvx4SktLGTduHCtXruTUqVOD3SQRERERMTiFGxkww4YNo6ioCICVK1cOcmtERERExOgUbmRAjRo1ihUrVnTePlpEREREZKAo3MiAS09PB7r/OKiIiIiIyJWmcCMDbtSoUSQnJ9PY2DjYTRERERERA1O4kasiLi5usJsgIiIiIgancCMD7tSpU5w+fZqUlJTBboqIiIiIGJjCjQy4jmttOq69EREREREZCAo3MqBOnTpFUVER48aNY/z48YPdHBERERExMIUbGTDnzp3r/H2bjt+7EREREREZKAo3MiCOHTtGXl4ejY2NvPDCC4waNWqwmyQiIiIiBnfTYDdAjOXcuXOUlpZSVlZGcnIyLpeLjIyMwW6WiIiIiNwAFG7kijh16hT79u2joqKC06dPY7PZyMvLY9iwYYPdNBERERG5QSjcGERNTQ2fffYZjY2NBINB8vLyBrzOc+fO8cYbb1BRUdF5R7T77ruPdevWabRGRERERK46hZvr0O9+9zv27dvHTTfdxLlz5/jss8+6Lb/vvvsGpN7a2loaGxs5duwYjY2NNDY2AjBu3Dh+8pOfMGvWLI3UiIiIiMigUbi5Do0ZM4a2tjY+//zziMsbGxtZuXJltx/NTElJ6RU8br31VoYNG9YZUiA0GhP+/NSpU92CDMDNN99MSkoKixYtwmKx6BbPIiIiInJNULi5Dk2YMIGXXnqJ+vp6XC4Xzc3N3ZbfeuutNDQ04PV6L7uu8CAzfvx4UlJSdOczEREREbkmKdxcx2bNmsWsWbOoqKigpKSEpqYmAEpLS3ute+zYMc6dO9fttdOnT3Pu3LluIzzDhg3TSIyIiIiIXJcUbgygI+SUlJRQVlYWcR0FFhERERExOv2Ip4Hk5eVdkaloIiIiIiLXI4UbERERERExBIUbERERERExBIUbERERERExBIUbERERERExBIUbERERERExBIUbERERERExBIUbERERERExBIUbERERERExBIUbERERERExBIUbERERERExBIUbERERERExBIUbERERERExBIUbERERERExBIUbERERERExhJsGuwEdWlr+xH//9zuD3Yzrgt/vB6CtLWGQW3J9+OpXv0li4j8OdjNEREREZIBdQ+Gmlv9uPkDiLWMGuynXvIT49n98cXpQ23E9aPnkJMFgUOFGRERE5AZwzYQbgK/+z9HclfLdwW6GGEnjmwQHuw0iIiIiclXomhsRERERETEEhRsRERERETEEhRsRERERETEEhRsRERERETEEhRsRERERETEEhRsRERERETEEhRsRERERETEEhRsRERERETEEhRsRERERETEEhRsRERERETEEhRsRERERETEEhRsRERERETEEhRsRERERETEEhRsRERERETEEhRsRERERETEEhRsRERERETEE44UbfyPFC5eRHD+XuHlv0TTY7RERERERkavipsFuwJV1lvLlq3GPfg5fWwqmwW6OiIiIiIhcNcYbuQHMd39VwUZERERE5AZjsHAzgrTv3cXeP/2NwGA3RUREREREriqDhRswDY2HCh8Ng90QERERERG5qgwWblrw7jvBfSvuIm2wmyIiIiIiIleVgcLNWTzz/hXX6CWU/2jsYDdGRERERESuMgOFmxHYdr5EAS+S9kSjrrkREREREbnBGCjcAMSTenciH/3pb/p9GxERERGRG4zBwg00NbeQ9L2vYR7shoiIiIiIyFVlsHBzFt+ffGSO/upgN0RERERERK4yg4WbkL2/qcOni25ERERERG4oBgs3I8jd9BwbTXvIvGUucfPe0rU3IiIiIiI3iJsGuwFXXEIKzu2bcW4f7IaIiIiIiMjVZLCRGxERERERuVEp3IiIiIiIiCEo3IiIiIiIiCEo3IiIiIiIiCEo3IiIiIiIiCEo3IiIiIiIiCEo3IiIiIiIiCEYKtw0vbKBuKJGaH6L3PjdVF/1FpzFM29uqA1RNL2yofPHRfvb3j7XCxzFuTD8B0tbKF+1ntSxc4mLd5C5+AB1/vD1/4pn1XrM8XOJu2M9zlf+SqBj0fsHsE1+lLj4uZhzSnC/f6F/ZfobKV64jOSLKjPWPvRzWXvbPAu7jktXfY8yK/9d3vu040B6yI2LI67Xw0GlHwJ1LmypycTFJZNqK6Y6bP+6lsVhtjpw1wW6FvqrKbalkhwXR5zZitPT0LnvBBrwOK2YIy3rXMeL0+aJsH8BGjxOLFYXDb026r1dkyeXuMLq9v0sHIT3v4iIiMjgMlS4wfSlrn8ngmnwWtI//W1vrPUCJ3At3Mim8JPfY+9SHphG5Ye7CLYVUZh0kMmr/kjoXL2NylXrKE6aR13bLoKVU2latY6CNy9A8x+x5xzEvGkzwbZdNGy+i8p5L1Lp76vMFtwLV1P5nVU0te0iWPltfPaNuN4ndpmx9qE/ywC4QHXRfzD/Nx3PWyj/eRvOQ78g2LaZf5/4ET/819eoA0i2UR4MEux8vMvGSTBpowNrgo9ylx9ndRPBYAOezEqmWItD2zWVY7e6MLsaCAaDNLgsVOY62/fBh9s2hUpLOU3BIEGvDd98G646AD+VTgvFyQXUBYMEvXaanBYKvGE7E6jDZbNF2L8A1YUW7ihOptDjILXnmyPSdqawlZKug/e/iIiIyBVmqHCTnGTuenJPIsmD15R+6W97o67nP0rxDjDf4+++wfhs3Ju/hdkEEI9l1mT41d9oAPjoCIW/uIeCR1NIABjzbfJXJLBhXyO+I1XsHD8Tx3fjATCNuQfHrIO4fn82dpm00fQ+mMckhuof8zUy8dHQ3EZTrDJj7UNfywC4QN3WDeSuPR72WiK2zXPITAi1M3Xi1+D9E/giDPv4y4v58XsLKbCnAWZsrvz27RJIy7TAH6vxNUFTtYedqU4cloTQPphzceSW4KpsAvw01YHZ3P7/yJxKJu/R0OQHXzmFJbkUODJDx9psIz8/mQ3l1aHRG7+XYjeYM5t7tS1QXYBjNTxX7GxvU3jDI2+XnJzW9STTfM2//0VERESuNEOFG4BJQ78EQ+O7Tuya3yI3fi6FR7rWaXplA3Ed07vCp2jFO7AUHe2aNuQ/gXvZeizWtVisa7GueitselAjhfFzyX3lr1RvXY85/lHy3/yid4N6TgHb0RK7vYD/9yWYx64NjXzEWK+hcQj2H42l57lvT3VH3oWZiZiBpvff5Y2Zd5EatlFyUiJ85OdTAH8bXVFiCKahsPfkf8csE8ZiXTGOksVbcR9rw//mWxQnTiP3H+Pbdyh6mbH2oa/9872yFWtRPMUls6Os0UZD/d+45QdTsPQ60/dR7trOpI1OcntV4Keu2ktSnr1rO78/bB9MmEyw1+cD0rDmf4sSux13gx+/10NxUh65mQk01VXyRo6l+7FONoOvCT/Q0GDC7kiLsH8+PAUbMG10kZ/Ze/wl+nYwyWQCU4KCjYiIiNyQjBVu7plD3ZKxkDAZ185v9+sEr+n3v2b+m3dR3raLYJsL74oJoek8gRMU5m6l4fs/wVv5FN7KxylI2odl1bt0u9Tk98fhh0/ga/sZBd/9Uo/SW/DkraN46EyqP9lF8MOf4Lj7EtobZb3Ue1L6DDb438VV5GPhDyeHtguEAlivU+Z9LXx+92Sy6w/h7hhV+egtinf0o0wg7UdL+NndVTzyzYcZMb0R584fYk2A5D7KjLUPsZYFjuzGtqqN/L1LsKV8JcIajRTGP8z/9fY3cD12V+9y6sopPpCNMzetx4JqCuNGYKvMpbLYSgKQnGYl+z037sr24R+fh2J31xZpDjc/S9vJI3eMYMTUapzlhVgTgEAoCfc61nt9+IDUzMzI+1dXTvGB8SR48yNeqxN1u8x86pxpkGDFVW5TwBEREZEbjrHCzSVIHpPCt+o/oPLNs90u9Pb/4SCrTV3TqWAImd/PJvUXh/CGzQZK+N5d7dOGhvQ+iT3yFs7fZFG4ZjLJ7dO5Uu9O7LNNCd/Lw3fiqe5B6JJcwPvsVkruXkLBrPjYq04cgmnMVDyHptK0amXo4v9lh2hqgZzRX+2jzLOU562jIGEJH/7tZ+x5FFbPK8HzEdCvMi/SR29hX1hH7s7HcN49JMpKKeS3vcS/Z/8Nx78coK7bNS0BvJ5Cmh7Lx2buuV0m+cGzeGxerJbC0HZmO57DdpqcaaEbCjjcNDVDjtkMNFFut1CQ8CIfnj3BnjxYnevA44vR/kmmmNfD+JsaeA8TaU4Pvs7reHpcqyMiIiIivdzw4Ya7Z1L5zlSailbz5Ts2UHykDYCA3w9/2MrY+LnEdTzu3MobfNHjblc9R2u6NH10nOaZKb0vBr9KAm/uwPafX2Xj+ql0O4dv7bkPwJjQVKaEe2biefcXBNt2UbckkQYs2L83InaZ71dR8BszhU9NJTUhkdzNT7Dne1U4fx6a4tdXmRfnLOVrN7Lz5Aesnjo/9P9l6q+AXzGl153k4kn9pzRy3i/HUxf2sr8S94Zk8m2WKCEjgTS7E/sfV3dul5DpxNPQRDAYpM5ppoGF2K3JUOehYGcahYV2UhPM5Loq2WPdidPlbb+uJtD7WJuTY46qmEwmwEZu+zU+mG04lzezobouxlYiIiIionADJIz/NsV7XZwt+RruqSWUN4MpIQFm/pgTbbsIdns8hi2pn+UmfRWOtBDrS/wBE2ikYNXvSP7Jv3QbAUoeP46kPzTS0Dm37gINfzrCpO98rdsJd+DYIRyLD2LeMLPrmpQoZRK4wHvcReqYjhfiSftuGs0n27pN4YtY5kUbQe72Hv9PDv0z8M8cbptDZoQt/gEIBLoihq/cxfZsJ71mpPWQ0GM7gECDG4e9BHPHtTqBAO9hIdXctVWaJZtmnx9TaiZJb1SHHesADdV7mWRJjR1uEsxMivB6ku5/JiIiIhKT8cNN0tewTITqxvYL+f2NeHZE/h2ahKSvdl7LkPCdqTzX/CL5O0503kK5YccO3B/1v2rTPVN5bszvKNja2FmGr7mtz+0i3VDg4lyg+pkSNjT/L4rXpHQ/Jb57Mvn/eJDi9v3yHztE8X/eQ/4PxnbVf+wQdutWvN/9MZ4lY/suM+VrLOQDGjqPTQvVFXVkf29s50l85DIHgP9dHIsPtQeKC5w59CG/vOU7WNM6WuzD6z5Ajt3afTTLX4nD7m7fLkBTuZvipLyw7cDf4MZueQSvpQyPsz0ZpaayEC8NnQnWR3X5AbKtaSSnWcn/VgnF7rrQsW5wU7wph3xbH6kqLRdntgdP5zU+5bg8k3BaUi/tkFQ6MSdbKK7TtDYRERExNuOHG8biKF2MqWg1cfGPkrq8keTvpXQuDby5G8sd7dPOco+Q5n4QaxJgSiG//DEy3ywhLX4ucWNX43zfTGY/R20AMI0lv/JJHKa3cFrXkrtsD97ov+95xQSO7MPxHz5o+R1TbwmbVlfUCIzFuf1xUn+/kdT4uaTaPsB6eEnYaNQFGva9hf8Hq6je/u3OABCzzIRvUXxoMt689dif2IFj3lYqv/Mcnh8mxixzQCRMpnDJBQqmPkpc/L/yyG/+Dx578QehC/wBfF7cb+Rg63n7tAQrhc4ABZnJxMWZsbhMFHuLu7YjQEO5B79tD9UeW9c+JORSfNiK127Fnp+PI9dOpeUwHrsZSMPpeZXUShupcXGk5nqxvuvG1ueV/mbsHhdmtyX0w6AWN8mu8oh3TuvXIcm04Uh7g2pftFtqi4iIiBhDXDAYDA52IwCOHnXBFx8yYfx9g90UMZAPGt8keFMqEyY4Brspg8iHx1ZIgssVFtaMy+cLDaN1/vaQiHRS/xCJTv3DGG6AkRuRG1kAb7ELU+GNEWxERETkxnbTYDdARAaSCYuzcLAbISIiInJVaORGREREREQMQeFGREREREQMQeFGREREREQMQeFGREREREQMQeFGREREREQMQeFGREREREQMQeFGREREREQMQeFGREREREQMwVDhpumVDcQVNULzW+TG76Y61nrz3qLpsmprpDB+LnFRH9HrHxxn8cybGzo+UYQfl4s6lrHWCxzFubD7sQ68fwDb5EeJi3+U1IX7qPaHL/wrnlXrMcfPJe6O9Thf+SuBfiyLWeanf6HYlkpyXBxxZitOT0NXmaGtafA4sVhdNIQtCNS5sKUmExcXh9nqwF3XfavQSl6cNk/395K/OnJ9TR5y4+KI6/VwUOlvwpPb8/VcPD3fpJHqi7EPl7csQn2x9uFY9GUv/yKXuMLq9u0Lr7G+ISIiIkZhqHCD6Utd/04E04BWlkJ+2y6C7Y/DTwFPPdf5PNg2h8wBrT86X0UJ1sV/vLzw1t9jGWu9wAlcCzeyqdtJcwvlP2/DeegXBNs24/nHd5mSu486ANqoXLWO4qR51LXtIlg5laZV6yh480Ify2KV+Snlq/6dSks5TcEgQa8N33wbrrrORlJdaOGO4mQKPQ5SO3agqRy71YXZ1UAwGKTBZaEy10lltyBWh8tm67F/Pty2KZHrS7ZRHgwS7Hy8y8ZJMGmjA2tCaOucstNhy8uxJfdVX4x9uKxlUeqLtQ/joy+7/5awwpMGum+KiIjIjcpQ4SY5ydz15J5EkqOvamhNjQc50PrFZZXR32MZdT3/UYp3gPkef48tErFtnkNmAkA8affcBX9qxNcMfHSEwl/cQ8GjKSQAjPk2+SsS2LCvkUCsZbHK5DyfNIDZ3N5OcyqZvEdDU6hdgeoCHKvhuWJn+/YhTdUedqY6cVhCL5rMuThyS3BVtkdGv5diN5gzm3vsn5+muuj1dVuzvJgfv7eQAntalKMbvnK0+qLvw+Usi1Vff/chfFlyctjyTPMN2zdFRERkYBkq3ABMGvolGBrf/eSp53SmHS3dN/KfwL1sPRbrWizWtVhXvdU+RecC3iceJfmJo2HTmNooXzwXa88yeopaJkAjhWN3UH4kfCrVAbpmPYXq6JjiZrZsofhIW7+2bXplA1PWAvs2cmv83NjT7/o4LpGOpf/3JZjHrsX1fuz1GhqHYP/RWHqeM3fXRt2RD0h6dCqWJGh6/13emHkXqWEbJSclwkd+GmMs88coE75K1qNjKbHbcTf48Xs9FCflkZuZAPjwFGzAtNFFfmaEsQR/eNkmTCbY6/OF9q/BhN2RFmH/0rDmfytKfeF8lLu2M2mjk9zwUFVZTGG+A2tm9+lz0euLtQ+XuixWfX3vQ7Rlk0wmMCUo2IiIiMiAMVa4uWcOdUvGQsJkXDu/3X4S1YInbx3FQ2dS/ckugh/+BMfdYdsETlCYu5WG7/8Eb+VTeCsfpyBpH5ZV7+JnCJYfzMb8H4e6piN9dATXryw4ZiZGb0fMMtu17KGwIpHid39BsO1JnP5S7D8/0b4wntzSrilv3h99zo/n7ehqQ4xtk3/wWGiK3Mwfc7ptF8HO49BTH8cl4rHs7zGH1HtS+jgxbqQw/mFsv7+Hyucnh9YNhEabep1q72vh4xjLfLHKBFIffJifpe3kkTtGMGJqNc7ywtA0sLpyig+MJ8Gbj7nH9THJaVay33Pj7hip8XkodndVm5qZGXX/0hzuyPWFqyun+EA2ztyuEQ2TeSMudyH5hS4qPfZu0+ei1hdjHy55WR/7F2sfoi7LzKfOmQYJVlzlNgUcERERGRDGCjeRHHkL52+yKFwzmWQTQDypd3cFE/8fDrLaNBPHd+PbXxlC5vezSf3FIbzNwN1Tyf9nL659oVGNuop9NG2YGeGb6i59ltkud9bk9pO8r2P9wV2894e/RRxlMX8vi5yWv9HUevHbXupxiSbhe3n4TjzVPQhdkhTy217C84MPsFp3E+la/U4ThzA0xrKuwBOpzDZef3wjBQkv8uHZE+zJg9W5Djw+8Dc18B4m0pwefJ3Xx1go8AbAbMdz2E6TMy10QwGHm6ZmyDGbo7WkXRPldkvE+roE8HoKaXosH1tnccnkFjvpjAlmC7ac9yiv67ZhL7H24VKX9U+kfejPMhEREZGBY/hw0/TRcZpnpvS+WLpdwO+HP2xlbPidzu7cyht80f4tdjzWH86mbscH+AJH8RQl4Jw1NmadfZfZm2lofLfn/vcP4Zi3FvuqfTiX7WAvH9AU5fKHntv2R1/H5eqIJ+2HM7H/6Vd4Oqa5tUY4RmMSSIyxrPsoQI8yjzXyf1d+ncJCO6kJZnJdleyx7sTp8oLJBNjIbb+uBrMN5/JmNlSHhksSMp14GpoIBoPUOc00sBC7tY8xhzoPBTvTItbX2XZ/Je4NyeTbLH1eWP9GU+zIaoqxD5e6rF9i7cNF7J+IiIjIlXTTYDdgoCUkfRWOhKYuRTotNSUkwMwfc2Lnt4n2JbPpu9MoLNpA8Voznh/Mxjcmdp39KTOmYwewTmkk/y9PkZsEvA/efS9eSklR9XVcrqYEoClwgeTx40j6QyMN/qmYEwAu0PCnI0z6zoPcHWNZpPZ3lMn5/5djpJBq7lqSZsmmudJPIMHMpAhxM6nHKXmgwY3DXoJ547sxR+xCKwd4D0vE+vyEjrWv3MX2bCcFMe8jEGrXvNTY7yBTjH241GX9EWsf+rd/IiIiIlee4UduTPdM5bkxv6Nga2P79S5t+JrbOpcnfGcqzzW/SP6OE53LG3bswP1ReCmJ5P7IzKb/9JH/wwl9nv71r8zoAs1/448MwTQUCPwV95sXsH4HfK0X+rV9clIafOSjofcNujr1dVyiiXRDgYvifxfH4kPtbbtAU8UhihOnYb17CNw9mfx/PEhx+3HzHztE8X/eQ/4PxsZeFqvMsf+THBpp6Jzd5aO6/ADZ1jSS03JxZnvwdF5XU47LMwmnJbWruQ1u7JZH8FrK8Dj7cbaemspCvJHra3/udR8gx27tEXybKC/0dF0/5KvGUz0PW2Yf0TPWPlzqsj5F24e+lvXmr3RiTrZQHHNeooiIiEj/GD7cYBpLfuWTOExv4bSuJXfZHrzhv2NpSiG//DEy3ywhLX4ucWNX43zfTGZS92ISZs1k4789iL0/15r0s8yom393Jq/+WwuOr83FPK+O1B/Nwbnif9Gw40i/rqsxf/8RXrz7CLavzSUufgOeSKGqr+MyUBImU7jkAgVTHyUu/l+x/PxLFFc+0n7B/Vic2x8n9fcbSY2fS6rtA6yHl2BL6mNZrDKH3c6qHXfitVux5+fjyLVTaTmMx24GzNg9LsxuS+gHNy1ukl3lYXcPC9BQ7sFv20O1x9a/UbiEXIoPW6PUB/i8uN/IwWbpGVoSSDVX47Dayc93YMuvxuZ1k9vnsFqsfbjUZX2Iug99LIsgIdOGI+0Nqn0xkriIiIhIP8UFg8HgYDcC4OhRF3zxIRPG3zfYTRED+aDxTYI3pTJhgmOwmyIR+fDYCklwuXrfUe5SS2y/Xbe5z5s/iNx41D9EolP/MAbjj9yIyDUqgLfYhanwygUbERERubEZ/oYCInKtMmFxFg52I0RERMRANHIjIiIiIiKGoHAjIiIiIiKGoHAjIiIiIiKGoHAjIiIiIiKGoHAjIiIiIiKGoHAjIiIiIiKGoHAjIiIiIiKGoHAjIiIiIiKGYKhw0/TKBuKKGqH5LXLjd1MNQCOF8XMpPHI16hrcNg2U/u6riIiIiMhgMlS4wfSlrn8ngulaqOtqtmmgGGEfRERERMTwDBVukpPMXU/uSST5GqjrarZpoBhhH0RERETE+AwVbgAmDf0SDI2PfgL+0VvY7vgP3McuhJ77T+Beth6LdS0W61qsq96iIQBwAe+quVh3tHTbvLroUdK2nohal//3JZjHrsX1ft9tqt7x/2C9Yy5x8Y6wegHaKF88l7j40MNs2ULxkbb2ZY0Ujt1B+ZED2CY/Slz8o6QuPEBd57Z9LY+1z+3bx88l95W/Ur11Peb4R8l/9//r+7iKiIiIiAyymwa7AVfUPXOouyf0T9fOCMsDjRQu3Efa9qewjx8CgRMU5m7F/9RTeL8bD1ygumgtllXxNGyeTObM2dStOkLdD2eSBsAJql9JwF46Fu4eG7uufrQp4TuzcW3+F0z+E7iXP40l70vUbf8WycSTW7qLYGloPd+ODYydt4PUd/OwJgAteyiseJzyd3+Bh7/iylmO/ecp1C0ZG9og1vI+9jmhvW3+3x+H55/At+QCAYZQSD/2VURERERkEBlu5Ca6Fjx5G6j+0U/Iv2cIAP4/HGS1aSaO78a3rzOEzO9nk/qLQ3ibwfTdLPI5hLdjFOb9D3AnzST37ui1JHwvj/+fvfuPa7O+F/7/Cm1DlUZxYH/gZlM9QjeLPxashbo1PecMOEfouqbOgt6n9Pbc0PMY6d0Zb1dwk6C3Qb+PZnOFc096nx3ibgW3NZ1rcKfgfZ8EdaC1WaupwG5aOAAAIABJREFUW2FT001DW2GiaZXQQr5/JEACCQQK/ZG+n48Hj0eT6/p8rs/1ua48+nlfnx+X+/3H2DrBPsOWL70mMH8leRklPy4lf88veOHt8fupv7Gab578kOOfjH63vvD2YC/KF8m/52beevVDjjP59snOefQ8bmZVcmC7zLERQgghhBCXgvjquZnAiw/Xs3iRml/bunDfvxA10N/XB6/WsSypbszeK9kKwDLWlyex/pX32X7LMg6/YmfxPd9DPS73GZB8Dctx0x8cHtb3tp0dT9jpX7qS5GPN/JqPWHUCWDo+6fzEpPFfRtk++TkPm4cQQgghhBCXkssmuFn8nTJevAdeuPdf2P7LdF68ZyHzk5Oh4Lu8//O7ogYs6q+tZbH2EK+Xw+vPqdm6f+HsFLDvNG7ULJ8PdLaQn93FjvceY/0i4G1wNDfMyGFiOWchhBBCCCEuRZfNsLRVSxcCC9n0/30XShp44Rgkf20tNSca2PHc+/QBcJqjzz2H5VhIwqUr2fqNl3jRfAjLLSvRJkfMfkSkBQWiOXrsY/oB+j9mv/nnvLjx22y6BfpPfMgbKJmfCPR/gOWVAfK/Bu5PBqZ38iFiOucY9b3876iXPcrTb597uYQQQgghhDhXl01wM2LpXTxtgaKHX8M9P50dL36PVa/Uc1uSDsWyCra/rWbVotAESWjvWclTjz6P9v7RCffn7I5vsepEA7ct06H4chVP+wpw1N/JYmD+1wv4j++cZOt1OtT3Hmb5P29gu+Fujj53IGxezbTEdM6xSb7jLrbe8g6vHzs9+c5CCCGEEELMMoXf7/df6EIAHDnyDJz5Aysy1lzooox37DXWa91s/8P9aGV2fYiTvLD5VyT/OLiK20Xona5X8M9dzooVWyffWcQFt9sNgFotAy+FGEt+H0JEJ7+P+HD59dxM2Wlet9lxG1ZLYBNmAEddK/Mfu3gDGyGEEEIIcXm5bBYUmJYTr7Fe20zyd/4rjuF3yIggJdry+y90IYQQQgghhBghwc1EFt3Fi3+460KXQgghhBBCCBEDGZYmhBBCCCGEiAsS3AghhBBCCCHiggQ3QgghhBBCiLggwY0QQgghhBAiLkhwI4QQQgghhIgLEtwIIYQQQggh4oIEN0IIIYQQQoi4EFfBzfFfPoXC3BV4+WbSXl6/0AWaov4Dz6HW7uVw/7nm1MWTSToUUf/20jZjxxov1usQeb+TvPjw4yxfpkORtJVVpS0c7gtJ1P8BLzz8OOokHYovP872X35A/6Tpenlxez7LFytQKNSsKnkmPM9I+o/ywvZ81AoFCnU+2184yriq6newfdMLHJ+sQmYyLyGEEEIIEVVcBTfMnzf674Uw/8KVZEJuWz35pW/MYkM2nR2nrfiDfx2PAY/VjHz2n97AnbN2bGK/DpH26zzEi/257P+DFf9pM08uauX2h98gEIucZv/DVTy96F4On7bi37+W4w9XYXxlIGq6TwHef4cX+7ey3+3H7z/Mk4uf4fbtLxI9vulj/3YtTy82ctjvx+8o4fh2LUZHSEjSf5hnNm3ix5MGhzOZlxBCCCGEmEhcBTeLF6lHP6xcyOILV5QJHe9qpeWTM+O+n7/yftyODdx2HqKy2TxWrNch4n4ZeVh23Yl6PkAS2sLb4fkPOQpw7ABP/nQlxgfSSQZYehc7DMk81dxFf5R07wMs+zqWZ9YHtyWjXZ8Pzx4N5BmJ+0WerF+PceuqwHHUm9ixYzFPvfh6oMelz8HTFlCvOjF5ZcxkXkIIIYQQYkJxFdwA3Jo4DxKTwhvUxw7x5OZtLE7SofjyDkrqukKe2geGcK1/uIXtpY+ivbeeHc8dCe9V6Xsfy7bH0eY/ijb/UfIffo2j/WPS//IDXq97HHXSA+x45WNeLB0dBqbW1vL0gdNAYChW9qNA849YkqRDce9rHA9+rwj5HFO5lz3Hiwda2HT7AyiSHmD55paYhpmNP9aYvJY9yvaXTwKncfzgURYnPcDyzc28HtrVMWGdRL4OfS/Xo172KM+8Pcn1CnH4wCEoWIgaOP72IdoKbmZ58uj2xYsWwrG+cb0ww+mui5Tn6/vhm2rUEbYBHD+8n7ZvasOPs1gN7uP0AUePzqdk620kR0k/W3kJIYQQQoiJxVdws3IDh8uXQfLtPPPzuwIN5v4jbNfWcbjg+7hPW/F3lLPq1Qry694PS5p8x0qe3P0Yjme/jbbzOW7bHBw21v8+T66v4+jGB3HsfwzH/u9jXNSM9uFDYQ3qvpf/CPf/APfpn2D8+jWs3z06LMzxz5/x3XufY38fLL7ne4FhYgXfpfu0FX+wnIvv+R7dlpWjGcZS7pO/4knbQp4+9FP8p6vZ3rebkn8LP69Ixh1rbF6Hvs38H/wcyysnUT/yGMdP17Cjv4H1P+0Klm2SOol0HWK9XqH6DvGM2c3m+28PXstAb9e4zqbmk7ijpEsdl+d+nnnyLTaX5EcvV39/5OP82o0bWL5qVezByEzmJYQQQgghJhRfwU0Efa/+lh8v+hY77lkYaGAmf5GS79zNG+ZDHA7Zb/nSawLb519DvuFe1u/5BS+8DX2vtlIxv4CtX08K7qlk1cY8lv/UjiNkJFHyN25mVXJg+9iGrPobq/nmyQ85/snMl3t9YbDhzxfJv+dm3nr1w2nP5RnJK/k6blvq4MUTycGhXAvRblzJiQMnOU7sdTJW8jfKcL//GFtviaU0AzhMddTfUo6xMGniXTND63yidP04jCXU39aAcf00Qopb58/cPK6ZzEsIIYQQQgAw90IXYLb19/XB0pvDntLPn58MJxm/YtWw5CTUuOnvD6Z/tY5lSXVjdlrJ1rDP88I+9b1tZ8cTdvqXriT5WDO/5iNWnQCWzl655ydOEgScg9CGeOx1Mn39rzzHpn+9lh91rA0fPvbJmfHnvzR5pJ7GpnsnNE/HDjb9WM2PDpWE5HmcF9YvoejXADV0+HcEtvX1jz+OevEk87hmMi8hhBBCCDFVcR/czE9OHtcg7vvkI8i8LvqT876POYqa2+YH0xd8l/d/flfUORrjdLaQn93FjvceY/0i4G1wNDfMfrnPk2nVyVT0d2F8+CUWP1gT1suzOOMmFr3axdG+taiTAQY4+uYBbv3at4PD1iKnC+T5OsbtP2bx9zrYelvohsVsetHPptCvlq9iUdvrHO0rCR6nn6Ov/5pbtcZJApKZzEsIIYQQQkxV3A9LS75jJWWdzTz98seBL/qO8MwTrdx5/82EtnHdJwIT/un/mP3mX7F/47fZdAskf20tNSca2PHc+yPLER997jksx6Ifs//Eh7yBkvmJQP8HWF4ZIP9r4P5kAIDFi26DY26OTvCulVjLfSFMp04g8oIC4w3w+hP1PHXibp5+JD08kLvldnbc0crTweP2ddp5+l9XsuOeZROn4wyvG7fy1PH/ztPGVZMHh7fls+POep62HA4c56iFp3/8TXZsmkbNz2ReQgghhBBiQnEf3JB8O0/v/xbUVQVWHct+jqP372R/+bKw3fqPHeLpbU+h3fYr3CvLOfrsnYEn6/PT2fHi91j1Sj23JelQLKtg+9tqVi2Kfsj5Xy/gP75zkq3X6VDfe5jl/7yB7Ya7OfrcAY4D6o1baLjlAJuu06FIeooXIgUFMZb7gphGncSq/0AzW3/ohpMvsTYl5MWj5i5gGduf/T7LX/4Ry5N0LN/0Dvkd5WxaFD3din/vxvfWf7L1qbfgxI9Ze4UChSL492S014vexvYX/oPl+zexXKFg+XoH+YcsbJpWV8tM5iWEEEIIISai8Pv9/gtdCIAjR56BM39gRcaa83zkLp5MqgC7lR0rJ99bXFre6XoF/9zlrFgxU7OBxMXO7Q6snadWz8qgSSEuafL7ECI6+X3Eh/jvuRFCCCGEEEJcFiS4EUIIIYQQQsSFuF8tbXLp7DhtvdCFEEIIIYQQQpwj6bkRQgghhBBCxAUJboQQQgghhBBxQYIbIYQQQgghRFyQ4EYIIYQQQggRFyS4EUIIIYQQQsQFCW6EEEIIIYQQcUGCGyGEEEIIIURciL/gpv8DXnj4cdRJOhRffpztv/yA/li2XYR5Hf/lUyjMXXDiNdYn7eX1cZl+zAv36lAkPcDyb/47+49NpaKEEEIIIYSIL3EW3Jxm/8NVPL3oXg6ftuLfv5bjD1dhfGVgkm0XaV7z541msRDmj8v3Gjb93Ir/9E954evv8A/b7LjPrQKFEEIIIYS4ZMVXcHPsAE/+dCXGB9JJBlh6FzsMyTzV3EX/RNsu0rySF6lH81i5kMUTnPri6xeGB0NCCCGEEEJcZuIquDn+9iHaCm5mefLod4sXLYRjfXRNsK0P6Hu5HvWyR3nm7Ysrr1sT50Fi0oSBDYD7z10sWnkd6kn2E0IIIYQQIl7FVXBD/xkgwvCt5pP8ZYJtEYdyXQx5rdzA4fJlkHw7z/z8rgkCnI9xH+hj1fXJUfcQQgghhBAi3s290AU4LzKVJE6wbT6Q/I0y3O9ffHnF5hpWbVzN9j2Hcd+zVnpvhBBCCCHEZSm+em4APjkzft7L0mQWTrAtao/IxZpXBOp7yngh3c6ye1/j+BTSCSGEEEIIES/iKrhZnHETi17t4mjf8DcDHH3zALd+7TpumWBbpCDiYs0rsgEOmx9n0yd30z3h8DUhhBBCCCHiV1wFN9xyOzvuaOXp594PTOzvtPP0v65kxz3LJt7G+EUALpa8YnOaowf+yKqvpUtgI4QQQgghLlvxFdywjO3Pfp/lL/+I5Uk6lm96h/yOcjYtmmzbpZRXJNew/Gtqfv32R1NJJIQQQgghRFxR+P1+/4UuBMCRI8/AmT+wImPNhS7KJen4L59iyZ7VvP/zu2RBgRDvdL2Cf+5yVqzYeqGLIs4TtzuwZqFaLb8EIcaS34cQ0cnvIz7EWc/NZar/JI7mrpElp4UQQgghhLgcSXBzSfuYF+7VoUipwNi3ml/tkmWghRBCCCHE5evyeM9N3LqGTT+3sulCF0MIIYQQQoiLgPTcCCGEEEIIIeKCBDdCCCGEEEKIuCDBjRBCCCGEECIuXFRzbj7661/4/R9fvdDFEHHkZO+fuXbR8gtdDCGEEEIIcR5cNMHNwoUaFAoFF8VLdy5yfX19ACQnJ1/gklz8Fi5ezrXXfvVCF0MIIYQQQpwHF1FwcwcLF95xoYtxSZCXTAkhhBBCCDGezLkRQgghhBBCxAUJboQQQgghhBBxQYIbIYQQQgghRFyQ4EYIIYQQQggRFyS4EUIIIYQQQsQFCW6EEEIIIYQQcUGCGyGEEEIIIURckOBGCCGEEEIIERckuBFCCCGEEELEBQluhBBCCCGEEHFBghshhBBCCCFEXJDgRgghhBBCCBEXJLgRQgghhBBCxAUJboQQQgghhBBxQYIbIYQQQgghRFyQ4CZWPU4sBh3arCyycvIoMdlw+2JP7ms3kWdqxxv87DLnYHYGM/C0YCgxYXX1TJYLTnMJz71zejpnMDN8Lmp1ORgd3sn3DdODTZ+F3hbpHD1YS7IwtEw1T+ix6cnS25is5kb4nJhyCrF0TvlQMfFYS8gytDD1M4mVC3NWFmZX9D18rlp0OUaGL9GU6yg0L6eJnEILM1Zd075/xnCZycoyE1oN3hYjxY1jS+rDadZhao9wPJ8LS6UFV3CTu1GP2Tm8X+B+Ha1nDzajGWeUYrutZZTZ3NM+HSGEEJcm/9Ag/r90MvSqlUHLo5x97Nuc/V4uZ3/yXfz9F7C9dhmT4CYmPbTU1OLVmdljt2Pft4vC7hqKqx0xNmJ9HHE0s0arQQWAB3eXGnVKYmBzWh7m2mKWOKvRN3YSNWbyOmhsSkGtTpr0iN52E8WVLdNq0E4ocQkaXRHZS5RTTJhKmhpUqsTxmzpbsXRtoFirOvfyua2U6SxEa/t7HY3sTS8hN+PcDzVeJ62WLjYUa5mBM5m2xCUadEXZTPkSjePF0biX9JJcZqy6pnX/uLGW6bCEXtSUdDRLUhjNxUNrk4tczZiS+py02DTkaSJckcR0tBonZSVGHB5Q60rBVBIS4Azrod30EFZ1AStGsgkEmVnBv401TpzVG0c+j/7piRjPCyGEuCT5zwww9N7bDP5nI2d3P8zZH3yTsz/+FwZ//a8MHXkN/6c9+AfP4n/3LYYcv7jQxb0szb3QBbg0qNCaLOQNt8tVGegMBqwbW3FWaJm0Te47QktrAXmGYAY+Ny6nhjx16CHU5JTUkhPylcucxZam8dm1bW7j6SiHyq7aT21hKr7ebrq8AzGd3dSkklOsn1ZKJZCSMr6yOjusULoTTYS4Z8q8bpzHom6kvbWNNUVG0mbgUON0dmCllJ0zciLnIDWHaV6icN52WtvWUGScydqazv3jxT32oipBqU4hBaDHhj6/mg6A+7KoA+BuGg5Wk9K8m72njrB39d6QxNlU7a+lMDURtW4njdRg6/WhTcvEUFuCwezAsyJ7ZG+fq5nmtCrqSzIIv7LD+UQrtwtz1u4pnqsQQoiLif/TXvzud/C7j+B/34X/L50wNBhT2qEDL5GQV4JCoZjlUopQEtzEJJHEc2mvej10n9pLWVgDC/ZmRYhcgrKr9lNrOMhBQ/CLHhv6si5KGw2ougPDX9RqdYSUgeE01R0AHeRnVUNRAwcNmYAPt82Msa6ZI70DKFNWUFBuxFCoDjbaXJiztkD9PjQtldQ0H6GXFLLLd2Iqzgz2RgT3aTiIIXP4/Dqx1dZQ13yE3oEFaMpr2VmSSW9jMcXWAhqtxaiBTMNBMscW1+fEuht0DcNP3HtwWmowWdo4dmoBK4rM1BqGe7y8uBqNGHe3cWwghezyXRhCYqXQYHBLVhNkV7G/tpCRtqenlaa2NRQZVZHPgx5s+nxacwMBYmz1MXIiOAMnEuzlCKbdtYd0hxHz3iMMpBdQYaogl1bMRjN7jwyQkl3Orp3FZCSOlmH0/GHB0jWUVFZQohnTgh7w4DBFKZPLTODUDOPrO1hWt82M0byXI6eUpGSXYqoqYewhPK1NtK0pwqgKrZs9lHtrqdwdvD4bKjBV5oUEizHeY8P1Hixr/b4VtFTWsPfIKRas2IDRVIk2bXj7yEWlaSSgKKS2NqSwIdfa7W6lYeNvweugrjaNnXZLyAOIHmz66sD52SqpGyilSmdET2D4Xn7gh0Pb6uDuHVkEjl5Ha93YYMZJ3bZiov+KfXhIwxB1uxBCiIvKQD/Kj44x+G47Q3/+A373O/DJR5OnG/KHf04IBjN/PcFvbfv4NPWGmS+riEqCm2nx4bI20rWmlEijXcZJLaT2YOHIR7e1hMYl9VTmxBox9dBS4yC31kxmIrjpomHjb9l4sDpC4zWVXJOd9NaHuK81l+d35pKmDBSy01LMfbZMqnbtozYtEZ/HQV3lRsoG9mDRjQZK7eYaKDexR6/C52mlessWKlXDDf6xVeHCXFKGM6eK+n05pCR66bJ04CYTdWY2WncaCyY4s+FhYvuCsY3H+hBlzlyet5nJUHpwNblwA5lAp6WELTYNuxrtZKp8eBx11FjcDLesM8vt2LNrWbsNdtn1ZKIMC0A6Wy10bTBO3tM2Rkz14XXQuDedkn3hw6KslbVUWGqx6b04a8t4yLiN5oF0SnfZ0NPF7rIyHmrSYCvJALw4KtdR6SmittFIugq8XRYq9evw7LSH3S9TukZjdFqK2eIspmHPb8lQeelsrmbLQyr2WHQhQUpwiJ0xfIid22Lk2eIK6m1GEr0uavXbKDOnsceQSSKx32NjahjzbjVVO23o8dBavYWHzBrs5jxUmeXY7dnUBi4q+kxQxnT9BnC12lAao1/vtOwCFpQVs8W9k12GQJ/pcM/neJF6YTSU75KeGyGEuNT5ez7k7C93knb0TfAPEbVf5swg/s/PwsAg/oFBODsEQ0MorlTBcO+M3w9Dn4MqEUWSklWDx5ib883zdSoCCW6mwYfb+hBl1jSq9uRNY25FJw7LEfZ2r2ZvxO1F4564e2zVVLd1MNCWRXXI9y9lvRSeMvg0PFGlIkWpBKWSFJUqUEavg2frBih/3khhsP2tyiikotLFWr0Vl270mCqdAUNOWnAfHVUVDvKb2nAX6hjbPPU0m2lKq2C/IS/YQ6JCo9cFNmbqMUXuOgjqwdEcPkys130EUkpRqwDSyCwJbvG1Y60boPz5SgJFU5FRWMFm12qc3cHEiaqROT2q4fMe4aJ5N5Q2aJhqJ1ws9dHjaA70cowZwaUxVFCoVgEqtMUlpG80k95QH+wl0VBUoqGptYuekgxSO62YW7OpsutHgmaVRo/J4GRdUyulOaO9UFO5RmG8Dp6tU1Nl15GhAkgko6CIgpo6Otw6RuIPVzO7KaVhzBC7Xk0pVbrg8CxVDpXGInK22HCWZ5IzEPs9Fi6NonIdGakAGehKdNSUHcFNHpkkolKpgsdToYr5B6ckU1dDsduKwbyECkNOsO66cTsJ1FFqDpWWWswPOej25bAk1qxHSM+NEELEg7P/5zH87x6OvHHQj9/rw3/6DIpF15NwZzYJN3wZhToDRepiFFenwNzw5vTQW69z5vEH4Io5DDlfxr9eL0PTziMJbqbC58ZaWUKNW8sTe4zkTWMqgs9ppUNXwWZPCiWV4U/FPTY9G11a0kP3d5mpbgV1dhW7xgy7Ge25CQwZ6prowG4XDrToxsy3TlyaiWagFXcPZAZbzpnp4c3jVLUautwRFk/w0uU8gibXxOT9BRF42rB25FJiGq2FTF0FK4q3kdddhKG8iNzMtEDDtstJM1pqw8qfSHpmNnQzKZ/ThjVFR8M0ZsZPXh8e2qwd5JaYxgW7anVIzSxQkoKG9JBWtDJkSnyP20m3JpfMMZmkpWdCTRfdMFLPsV+jMdwuHLTRujaLR8ZsKhpJ7MNps5IyMsRulCYzPTw4XJKOhlZ6vUB37PdYODWh1cR0FkLoqA4MwRxxNxsB1AXo1Q9xn6GXBnMhacDAQMjxVBoM9RoAeoCO6nzCsgmTTVXYZ+m5EUKIeDD0p0OBHpewL/34+/ohYQFz7n6AuV+/G8WXbowpv4RbV8ENtzJ04vcoho7jdx9BsWzCp71iBklwEyufC3PxFtozn2CfNW+aE9LdNO+Gzbt0ZHYYMdrSMRcGc/LYqDGrMNlCehY8Nh6qSeHBnenU1ZzrCQwwwPTajdH58HrDG+hTMTxMLDu0Ma/WYbFn42ptok6/jhr1gzTUF5MRpfyBbyczvOrXvplb9StUcLU3Y/bU+/HCBE9wZq/R+IMMUET9QQOaaLtEGWIXW96zXf4oIs25ASCwaEA9NVjas6nMGZOus5ESq5rayukMS+ugOj+8NzVCwcYEREIIIS46SVfDp70jH/2fn8Xf089c3T8z7z49JF4xeR5+P/7Tnwb+rUhg3v3/nYGqf4IrEhg8+HLcBzd/PPEZP3/zJI7OPj74a2Dd3y99YT5rMq7m3jsWctOiK6ed98DZIWp+82dePPQRfuBbt19LxT9ej3Ju5EWfJbiJiRdHdRntOQ00BucWTEdPixlHQRW1iYC2ghJzGQZrBRWaLmpKLKhrG8MmPrdbnOTuNJKhtJ37Kag15GLG2WkgM6TN6jvmwrlEQ3lIe87j8RLafdDpdECuIcJwp1TSNUuodjjxFk51iN4Ew8QS08gsNFCfm41x9Taau4rJWLKCbJ7F5YbMkYJ4cTmcQMHEh+px0Dxu1a8U0jXQGtqd4OvC1QHkhiefrD5cgRM559XeUtM1LKl24PQWkhdSmZ4uF+SWhNV/7NdojOB94Oo0MHbV5GHRhtgBuHt7IaSfzut00DF8/yTGfo+dX4modUYqgbHdfD1dHfSmBRas8DHVnhtZLU0IIeKBIj2LoQO/CXw4M8RQr49EYz1z7lg7bl//56cZ7HiZod//Dv8H7zH0wbv4+3rh7JnRhQQAhXIOLJgHQ4OcfXM/c3TfnfbQtHt+cgSFQsEvtt48rfSzaeDsEE+8dIznXj8x8t01VwbCi/c++pz3PvqchteOs+mOhfygUM38eVN/C82Tv/kzP2s/PvL5Z+3HmT83ge/9w/UR95f33MTC66S1dQmFuWoGvF68oX/Bl9K4rQYME72jxmOjujmXipGWUCKZ5UY0tvvI31jNgKEWQ2Zo6ziVnEojhTF1EQ0wMBDef5KoUoG7iy6vD58PUGVTtFlJXaURW2cPXq+Xnk4bNaZmNOUFYT0aHTVGrMF9PO0mKuuUbC7Kjhi8ZBSUk91Rjb7Wicfrxev14Ky14gK87WYMJkfEd+0MDxPLHtPAdllrcXq8+ABfdze9rECdAqTmoMt1U2cMbPd6e+i0VlLTMaafQJnCEtx0uX34fIGr4Wmz0pFbSE7YCaSRnr2EDstu2j2Bcrebd9MRYeLFhPXhc2KzpqAbeyLTkVFAeXYH1frhc/TicdZSafaOq/+pXKMwqmwKNvRSV2mi3ePF5/PR02nDaBx+J1JwiF1hTsS8endXY2r3BO8fK5XVHWQP3z9TuMemRknKEnB3ufH5fNF/Y7Hw9jL6bM6L0+FEGxLlZVft5+DBgxH+Giga3snnwlxSR/qeWrI79MEX0/bgrDVQXGzA2jlcwkxKdy3BWje1F/4KIYQ4vxKW3wH+IfAP4f+0H+XWRyMGNoNvv07//TmcqfsfDP72Fwx9+DsUSi8JixNJ+NICEq5LGvlTXDsfxRVzwD+E4uNu/O+9Bfin9fe7P5/Cecw77fSz9TdwdpAHLH/guddPkHzFHB65+3o6Km7n4A80HPyBho6K23nk7utJvmIOL7x5kgcsf2Dg7OCUj/Or350cdy1eOHA86v7ScxMLnxcvx6jbsjb4Do1RgWEsiXhcTjroZoCx78IAPA6MD7WSu7OWNHx4Oh04nm1idzvk6hvYZxqgtUaPrlVDcVExazRqUmPpBei0UHhfHd2AMr2c+pDJOqrszTyYVsa2tU0oNzfQrs8kU2+hIa0G87Z1VPcOBJcZ3odxzBrUYRMIAAAgAElEQVTAOlMpvrr7yOvohZRsSuvrKcmMUqDUPGr3qDDXVLJxbS8DC1aQq6+gCuh2O+lwLuEUjJmTE32Y2JIULw9tyePIcPnqd6ILLiCgrWqkwmzEsO5ZTi1YypqSSmorYEtrSAYZBRgKWqncuJqa7CfYX6sOrvo1vuGfUbSTB53beGjd3sB5mgyUdm+hdcx+E9XH2NXezk0qebV7UJnNmIrXcuyUkpQVBZQ3WCjMCK//KV2jMInkVO5hl7mG6o1r6R1QkpKt40FDeeAaTTLETlNhIMdRSeG2I5xasIINFY0Y8kIC9hjvsanJoMBQQGvlRlbXZPPE/lryxmYXbc4N4PP6SAwuNOHtcuJKV1MK4HXS1qYl1xhLGQaCQZUPV1MNLk0F5WrwuqDXewpQo9GbaRx+hY+7kTJjIhWWSmpVFh6qdvCESTu9uWlCCCFmVcLyO/EPDcKgnyHlNcz9x6KI+w0esDPU/ynMU0D/UGAJ6OCf3w8KCPTezEtAkTgnENwEe3MGD+4n4cZbJyyHo/NjvrfnPXpOnY24/caKN8I+py6Yy5O6G1i7/JpJz/HDPh8Ve97jd3/28tXrVdRsvIHrks9tyMn/bD5G+7tebk67kv+9OYNFV4U/cF54lZL/etcS7r4lhX+2HOX197w88dIxqr+5bErH+bR/KKbvhin8/rEzqMTM6qHdVEd3cQUFNPNQWSPKNcXoitegUaeGBUI+j4tWaxPWZi+F9TvRqSPfdOMXFJgpkd79Mgt6bOjzHRTYzWHDr2aFy0xOZQoNtpJp9BxMVh+BhRwcBXbMs34i54fLnENlSkNwaepQY98BdBHpsaGvhqqIC254sJWto9oZ3FeZQm7V85jyUvE5ayluVFNvDqTrsemppirk/NxYizdSE1ypQ5n9BPtq88IDFE8LlVuqae0dM/drwVJyK2oxTWfVESFmkds90XvShLh89T/8DYaOvU/Cim8w/wc/ibrf4NHD+P/yJ/wDPhQLrkax4CoUqmS4IgkGz+I/9QlDf3mXQdcBBl/bD3N9JFythGsWodxpn3Bo2qonnFEDm2hSF8zl9UeizqId8U//9nve7+nnti8t4PBfTvGlL8ynsfQrUzpWqK4Tn3H3029zzZVz2bftFhZfreT7e98D4H9uCLzXJ/Tz8U8GWLfrbT7+7Cwvbb+F9CnMwfmbMUHdsD/V3Bnxe+m5mXWB4WUBOmpbdFH3TEzLpFCfSeFMvF3+IhYYJlaCadbjgeirfs2ICKu9XdKGh9hNZ0m5C2nsCz1JZ8ue9OD8ozQK6w9SSHgPDkCiRo9VE5pNLWHZoKag3k7B8FLUkaTlYWrJwzQT5yGEEOKCUSxfid/9Lv4z/RPuN2f5bbD8ton3WbGSef9QhH/ro/SbvsPg0d+SMORh6N3DzPmb26OmGw5sXij7Clnq0bbFcOM+tDH/pvtTiur/EHMwdOjPp/j7r1zDjzbdxHdf+CP/4fprTOmi+cWBk/hR8J2//SKLrw702NjeCgz8Hg5uQj8vvlrJd/72izzefIxfHDjJ9wtn7wGLzLm5JKWzZc+WGe61OX/SdBYOmrTTeEfQVCWiqWyP0AsxQ9J0WA6apvxS0ItWoobKdhuzVV0XWmhgE3uaCQIbIYQQcWPOzTko5sHg79rxez+ZkTwVV13D/OqforhiEQwMMvTGb2JKFxrYRHOH+qopleX26xdw0O1F/3wXB91evrr03BovbV19ABTcmhJzmuF9h9NO5Ns/OcK9z7wz6X73PvPOuP2k50aEyMRw8OCFLsRFROpjVCqFtYEeECGEECLezPnyKvwM4Vec4rNH/okrjf8bxRcWnnO+isQrmKMt5Oxv6vG/3szcosrJV02LNmFkqt+HqNHdSIX1XexH+/jq0gXUbLhxJN3//f3HPPKrwBCyJ751A3//lcnn8Pzlrz5SkuaSkjRvJJ/CW1OYk6CI+jklaR4pSXP5y199k5b57Q9Oc3YIvJ+f5ar5CePm2Fw1P4HT/YM4j53iinmKsPwkuBFCXJIMBgNr165lzZo1qFTx0n0mhBDiQlBclcLZhcuYO/Qu/vfexHuvhrl3rGXOTZkoUhahSJyP39cPZwbwf/wRQ70nAktA93+GIukq5q5dx7y/+1bEvBOu/gL+M4Moej0M/ukQc2766oRledPtjdh7ExoPHHR7I34fTVpyIs8+ED7HZjhdxd53+fizQQB+8OJ7/N1XJp/DE+nYj3/rhrDvxn4GODM4xLw5iknLfHNaEm99cJrX/vQJ6796LT9rPxG2/dt3LOSVPwZ6gNIXXRmWnwQ3QohLUltbG21tbQBotVq0Wi0FBZO880gIIYSIYuDG25nT3QULFCQkDTH4+5c5+1YLDAZXQ1MQWBItQQFzFCgSFKAA/8AQZ947EjW4OXPkDVD68fsHGXzDFjW4SV0wl55TZyna/fuI22+qHD+xPiXp3JvyiXMTgEBw81GMc3i+9IVE3u/x0XvqDCkL5gHw7G+7+S/Zi0kYXiFuyM/zHSf4p9WLAeg9dYZP+4f4m2vnT5p/4a0pvPXBaX7Y+hcaS2/G74cXD30EwPrbr+WBr6VRvPudkX1DSXBziaqqqmL+/MlvDiEuBw6HA4fDwWOPPYZKpaKsrExWgxJCCDElZ27UcMUrTSOfFUpQKCNMTx/y4z/jx//5IEOf+1H+7beY/53HIuY5+PvfceaV/2Du4rkwNMTgG7+B+x+NuK9pwzIqrO/Tezq2AGORah6Pf0tNbH030f1w040Yf+2m60Q/ScqEmPL7enoy7/ec4KW3ekaCl2N/9bGu1sXaLycD8PI7H7MmI3kkv5feCrxRL+emqyc9xqY7F/JL50d0Hv+covp3MOR9kQdzvwjAa3/so6j+Hdy9PjIWXcGmOxeG5SfBjRAibigUimm/AVoIIcTl7cwNtwN+GBrC7xti6LMhOBN8gY0CGAK/348ieSFzbrwZZU4e8/5uPQkpiyPmN/indzj1vU0kqPwwFOgZ4YQ76vHXLr+G1x8ZP9/lpsoDAPzRtPIczzCyO9RX8Xdf/gJdJzzBYGRy92Rdy8/aj/Ov9g/Jy/wCi65S8j/yvohx3zGe6ziBQgG5N3+B7X9/HQAnPh3gfzk8KPDz7axrJ80/cW4C/7Y5g//2bCdHj3+OvvHdcftkLL6Cf9ucEex5GiXBzSWqurpankyLy1pWVhYACxYsGBmWptVqR97jIYQQQkyFP/FKBr70Fea532bw9FmSqp9nzo034+//DIYGUVypQqFKDrzXZiKDZ/Ht/Smf/+RRFIlnUFyZgN8fnBCf+kWm+4bJ2XozZe+pM/zizZNkLL6CHf9wfUzHSV90JUUrF9F44CRlP+vimf+SzqKrlDypu4EndTeE7Xv8kwG2/p8uek+fpXjlosAcmRiOsegqJXv+5WYa3zjBvsO9HPF8BsCKtCtZd1sKxXcuQjk3YVxeEtwIIS5JBQUFIwGNEEIIMRPO3Khh3nuHUcyDM2/8P+Z97e6Y0/o/P83A/9uL77mn8X/0JxKSElDMVcDQ6Epfc3XfnY1iT9uHH/v41aGP2PGP13N3Zgpz58Q++qHy7ut5v/dzOt71UrjLxb+sTePuzBQWXhV4783JTwd4ydXLT+we+j4f5M4bVFTeff2Uyqecm0DJ6iWUrF5C+iOBHqy931kxYRqF3z9bcaCYLfKGaSGik9+HENHJ70OI6NxuN3P/+CZX1f03GIKhM8kk/+ZdSJgTcX//qU8ZfPcdznYe5kzHy5z93asoFP0orkxAMS88SPArFMzb/BjKdd+Zcrk21Qcmzr9QdvPUT2qWDZwdouY3f+b5N04QGLsHX7hyDgqFImTukJ97sxbySMFS5s+b+is2i3b/HuexU2HfaZYuoKn0KxH3l54bIYQQQgghgLPLboV582CgH3wf8fE/LEWRdBUJIUPR/J+fZqjnOP7PPkUxV4FingKFUsGcqxTB9v1Q2Hx5xc2rSfyvTzLnhlumVaaLMagZppybQNU6NUV3LuQXb37EK119/OWvPubNUfA3184n52+u5p6sa8lYfOWMHneivhkJboQQQgghhACYq2TO8lUMHv5PEpKAoY/xf/4x/tMh8zkVCuZcAVwZ2gvhD0yKCba5/X4/CV/9Bsr125hz29rzeAIXRvqiK/l+wVJg6YznHa2HJhoJboQQQgghhAiae/vfcvbQ/w18GHm3Tege/kAME6HzQHH9l5mz+lvM/dv7SVi0lCi7iVkkwY0QQgghhBBB876+kX7LD+Dsmcl3TkomYcVdzLltLQm3/z1zvpg++wUUE5LgRgghhBBCiKCEa7/ElY+8wOeWHzDkPgLAmSuupj85jf5rvkT/F67n9KKbOLXkywx84YujCT88Ax++c4FKLYZJcCOEEEIIIUTQmTNn+ewrWs7WOEa+SwCuDP6Ji5sEN0IIIYQQQgTNmZPAlVfMZyjk/TTi0iHBjRBCCCGEEEEJCQkkJEz9fSzi4iBXTgghhBBCCBEXJLgRQgghhBBCxAUJboQQQgghhBBxQYIbIYQQQgghRFyQ4EYIIYQQQggRFyS4EUIA4GkxUZKXQ1ZWDnklJlo808un01JIVlYlDu/4bS5zFllZo39anQFze8iBemzoQ7Zn5eRRUmnFFSGvkEzD8tz4T9t4quEQo7m6MGdlYXZFS2smdFOPs5HKkjxyho9vcozmFWH/sHOLeJAAr8NEpdWNL0pdjP/TY+sB6MFh1GNx9sSUTh9INKt8rlp0OcaI13hCE9Sfz2kip9BC55RLM8H1jcJjLSHL0MJUix8TnxNTTiGWqZ9IzHpserL0Nia60j0tenJ0jbgDn7Dpp3tveLCWZGFombnamvb9E+ZczkkIEc8kuBFCAC4cHZlUPN+C3b6HqnQnj5SZcfkmTxmukw5rOmvWtGJrj9Jy2bALu92O3b6P2mIV7ds2YmoPPZCGiuft2O129jdWofGY2aK3Bhtp0Wxglz2Q5n99v4CkQ0+w0dTOVIvvc5rYqG9lSWk9++x29jeaKBxw4JqB9pNKW8Ka9hKKTe30AJmGgxw8GPK3v4psimgY+a6WwlSAVLTGKtId1VhcvvHpQv72V2WHHNGNtUyHZQqN/lglLtGgK8pmiXKKCVPS0SxJYXwyL47GvaSX5JJxzqXz0m4qprIl2kXrpNXSxYZiLapzPlaEozsa2ZteQu65n8g5UakLKNKpWXCuGXW2YunaQLF25mprOvePt91EcWVLSECXSpoaVKrEGSuXECI+SHAjhAAyKTYWkpGqQqVKI0evJ7fbjXvKT+ab2a3WotdtoK2plYidP4kqVKrAcTJ1RkzlKext7gh5iq5EmRLYJ1Wdg762ijVHLDgmfBKeGMxTxcL0XMq/ex8pe5vpmFL5vXRY95JmMKLPUZOqUpGq1qAzGslLnUo+0aSRZ26k5FQzzikESy5zFmZXKjmGWkrUTmprXaNBW087ZkO0wM+L23mM3nMudwSpORTr88iYartSCUp1Ciljv/e209q2hqLctBkonI/e7i68A1E2d3ZgpRSdZjYaxV7aW9tYU5TLTJzJuUjMyENfnMO53rqdHVYo1TGj1TWN+8fX203XmIuqBFJSZiNEFUJcyiS4EUJENbUH8z6cNiua3GzUmTnkHrHREcPQtpQUNXi90XtZVGmk0U1vtMZqJMnJqPHinVLXjRLlAvBOLdEUpVFoMk0/WFJp0GKm2tEDPhfmh6ysMOhQj93PZSYrawtNQNOW0CFuQI8Ti0GHNiuLrCwtOoMlPNgKDh1zehyYgsPzcvL0NIaODYw4nM+CQaclKyuLnGIjLW4f4KXdqCXH6AgEr6mF1NYWjmtwe1qbaFuTS06wnepz20KOXYnNHXJNPC0j27QlJhyekBujx4Y+K5/qDuiozidr3HA1H07rbtBlB3qIemzoQ+smcHJhw9yGh4C5OxtHzk8bbdimp5WmtjXkBk9kOK3LaUGfl0NWlpYyi5MeenBa9OTlZJGlLcHkCM8s9PwDQyNtuCPclqcmKNPkQ9dCypCljXwMn5NAdQW7oWK5NyDme2z40gyXtdPVGKynHPL0jXT6AuW06bPID1xU8rNGh39mGg5iyIx6gkKIy5QEN0KIcD4P7bW1dBaVop1KI9znpGWvGm1mKqg05OYewdI6+cSDUwO9oFIR9SGuz4uPJaRMJdL67Ay9qJjaiJVENIWbUdZtoaTWOeF8hqnqselnYE6MC3PWarY8e4TWh/LJWr2FpiNtPLIua3wjNrMcu30XG4ANu+zY7SZyUwGvg8p1ehzqShrtduz2RirVDvTrTISNDKQdc40TrWkPLfb9NJRC3ZZKohXdY9OzzuBCY2zEbrezr0pDr9sLqEjLzkGbvmSCQHnMMDGfE3PxbihpwH7wt+yrX8PAcBei10Hlxmq6C3exz27HZsrDVWemfTir1FxM9uep0ICm4nnsdjvloY1fr4PGvemUTHXMmNuC8dlESutt2O37MEUZttnZaqFrQzFhI7icNdQ4Mqna08L+50tR1ul5pOwRLCkG9rTY2WNQ0fyQmZEpLZ0WijdaGNAFztG+bxe6AQsby8b00MVYpshO46hch8lTRIP9IAd/20gpForNzrCHDJGH2E1yb8R8j42v4x+2qqnY04J9307WeH7IQ02dQCq5JjvPBy4qz9vt2MslohFCRCfBjRACCGmAr97C7kQ9teWZ0QOOCLwOK3vTdWjUACo0a9bQbe2YYIK4jx6XBaPZx+ai7MjzH3xuWmrMNGeXUxBje3Tg4y5+VdeAb3MR2VMcsZKYqcfSUE6itYx8bQkmW2eESedNbIkwkX9LU/R8UwtrI8yJmY5sqvZHmqsz7kxQBQPGxOBwvUSg02qmNbuKWr2GtODQQI3ehCF9L02toZGLCp3BQE6aCpUqlQxdFRXZHTS1RRgA53NiqXGjqzVRnJkWGE6YUUhxMDJW55kwFWdEv5dczewOHSbm9dA9oEKtTiORRFLVeeiCeblbd9OaXYVJl0GqSoUqTYO+VBeSdyIqVQpKJSiVKSPnPazH0UzbmiKmPPqtV0NplW502GalkaLeJmzO0Na6i+bdUKrTjDlXHRUGTWCYY4aOog0DOJUFVBWqUalUqAtL0NHGETeAF8ezdQyUmzAWBs8xNYPCiko2dJmxuqZapijeb8XsKsVUmUNaIpCYRk5xMeq9LYwm78HRHGmI3cT3Ruz32Ng6zqHckBNIk5ZDSYmGbmcXPQTu4ZTARSVFNdWHFkKIy83cC10AIcTFITXXhF0L4MVtM1O81krFvtoYh1AF5hosyS0dGSKl0mjJ7q7B6iyiMnTAftMWsoYDgQUr2GCqRZ8Z2lrpoDo/i2oAlKRkl9OwM2+SuQNNbBnJ9Epu+sZ3qdUPB2dKUpYQ89wTVWYx9Y5COlt288Oa+8hrrWJPbWFIA28Du+x6xj47dtWuZVuMx5i+0LoJkV0VQ9oe3M5uNLmZYwLJNNIzoaarG0ZqOZP0sLFuqajV0BVpEpbbRceAFmPmdFqcgaGMKbqG0YUEUrUUbbCwrbiYI+XllBbmoFYFyt/p6BpffnU6mpiO5aHN2kFuiWnqCwloMkkPO70lpGugtdcLwbvM57RhTdHRMDYI16SzZORDYqBhrlaH3M+hfVpuXA7Q6sZkkriUTM0Are4eyEyNuUzRfPzhO3R3H+a+rLoxW7IZSe5pw9qRS4lpbG1NdG9M5R4bI6yeQDnFQbFCCDFMghshREDi8BNRFZnFJkzu1dQ0d5JXEkOXiaeVpjbobruPce0lawd6TcjKVBt2YdcHQgNlxOFoGiqe3xl4uq6M9SntaMDx5+5ekpSEBCMppKjBGdowHDYAKCM1olRk5Bmo12oxbyyjzqHFNDLWKLh4wdgU5+VpcjZVu7Q0NSnZVQXV+V2UHjSMBFqTDXgbYBYajQO9dDPV+VlBw8PE9oXeYypyKq3Yi9ux7a6j+IdmcnfWY9RGK3+Mk7GCq34Zp9qdF5Ph1d72nfNqbwOBk5xdZwBNFfvqC6MufBAYYmeccu/nrNxjQggxBTIsTQgRVazLrHo6bBxZspn64HLMw3/7d25A2WojbFXokdXSos2zGV0tLfaAYXS1tKRx7apU1GolHQ7nuCFmnS4HFGhIj5rtCrKzZ2ORAS+uRvMU3yWUieFgLZndNpRazcjz7wEAjw19pYPuCdOnkq5ZEqEePHS5IFejDvvOE7ZTJ07H2H2C1BpyceCcxntdJhomplLnUGxqpPHBRJqtHfSQijpdSYezK3zxiU4XjhiO5QqMGQtf9Ss1DTVOukIrzt2Fc2xid294z5/XiaNjCZr01OEToXlGVntTo8kFx9jK9B3D5Qw5XixlmsA16ptZ4nRM8P6oaEPsYOJ7Yyr3mBBCzA4JboQQ9LQYMdo66fF68Xp76LTVYG7OZvOaQGPE227GYHJE6RnopNVyhPSSQjSq0cBFpVKRqi1Ep2yjqXWabwSdIZk6AyvaqikzWnF5vHh73DgbDZTVKSnX5QQbcD3YDGWYbU7cPV68Xg+dNjPmvUtjajDGasDrpLGsEGNXOhnj1kSeWE+7iUqrBkNBGqRmU5DrxFxcTPFDTajWpI9ZYjkwHM/d5cbn8+EDMgrKye6oRl/rxOMNnKOzthKzdzNFYY/oO6gxWukM1kO7qZI65dh9glTZFG1WUldpxNbZg9frpafTRqMjcLe4rQYMjZ0RVsMLDhMrzAnvBetx0GjrpMcH+HrwdHtRLklDBWTmlrK02UzN8L3qacdUvXvMkMNEVCpwd3XhDZ43Pic2a8roql8j0lmxZgDr7uC59nRitTSOn2fVu5tqU3ugzno6sVZW0xEyD8zTZqUjt3BktbfpU5FdtBllXeXo77GnE1uNiWbNmHlnk5RpQstWUrKijepKK509Pnw+Lx6nhbLgS5GGh9iNqy5gsnsj9ntsahIDF5Uurw/fbC5oKIS45MmwNCEEqZpC1DWVbKw+xikWsHRNIaWNFSPzbXrdTjqcSzhFhBHznR1Yu1dQkh3pqWwmBaVLaLJ14NHpZvckJqLWUb9HidlYR9m6GgZYwFJNLobnjRSONOBUZBam49hdSXF178g+Jc9bQvY5N91dTpzWXpZUNWLNSwOfF2+wJe3r6sId8QWXAB5aDJW0afTsahzutUklz9RIXsherlo3o+tCZ1BgKKC1ciOra7J5Yn8teal51O5RYTabKF57jFPKFFYUlNNgKRzzzhEdplIfdffl0dELKdml1NeXEHlaTSKZegsNaTWYy/KpPqUkJVtHVUUh4MXjctJBNwOMWVQg2jAx1RJwBO/FYPkaDcEehIwS6uuhunIL+dWQsqKActNOEjeGznZSkb35QdLKtrG2ScnmhnZKPIFVv/aNu44q8gw7cVYauS+/hgUrNmAwGtA2j5k9panAkOOgsnAbR04tYMWGChoNw/PAgqu9GaMsijFFgUUt0qgxb2NddS8DC5aypqSSfUZN+G9vwjJN5jp0tQ1QY6Ysv4ZTLGBFbin6BzOZfIjdJPdGzPfY1KiyN/NgWhnb1jah3NxAu15WTBNCRKbw+/3+C10IMTVud2BVGrVauviFGOvi/X300GKsg1IjecOjl1xmsoaXWVOmkFvVgCkvfGiTy5xFa27093n0tOjJf6QjkEV6AaZdxqkt4T2Wy0zWFmgImcszG1zmHCpTGrDFMqfrnPRg0+fjKLBjzpt6+NFj05Pfmsv+CO/nAcBlJqcyhQZbyTnPtzkfJv199NjQ5zsosJsZV13n6d4Q4kK5eP//EFMhPTdCCHFepJJnNIZ/lWng4EHDhKkyDQcnbEim5tVyMG+CHS5Gw8PExi0tNguirvo1EyKs9naJCwyxK2FWqksIIc4DCW6EEEKcX4kaKttt5+dYaTosB2drSGQimsp2ztOZnBdpOguzVl1CCHEeyLC0S5B0mwoRnfw+hIhOfh9CRCe/j/ggPTdCiLjn9Xppa2vD4XBw0003UVZWdqGLJIQQQohZIMGNECIuhQY0Dsfom1BuuummC1gqIYQQQswmCW6EEHHFbrfzs5/9DK838hsKm5ub+d3vfneeSyXExaG/v5/q6uoLXQwhhJg18hJPIURcSUpKYs6cOcyZM+dCF0UIIYQQ55n03Agh4srKlStZuXIlarV6ZEhac3PzyPaCggKZcyMuW8MTpoUQIl5JcCOEiFtarRatVovBYBg390YIIYQQ8UeCGyFE3FOpVBQWFlJYWHihiyKEEEKIWSRzboQQQgghhBBxQYIbIYQQQgghRFyQ4EYIIYQQQggRFyS4EUIIIYQQQsQFCW6EEEIIIYQQcUGCGyGEEEIIIURckOBGCCGEEEIIERckuBFCCCGEEELEBQluhBBCCCGEEHFBghshhBBCCCFEXJDgRgghhBBCCBEXJLgRQgghhBBCxAUJboQQQgghhBBxQYIbIYSYTZ0WdFlZmF2xJujBps8iK2vM33AGPTb0WVlkFVrojJaFx0pJVhZZehs9Y3N3NlJZpkOblUVWVg55JZU0OsP38rWbyMnSUevyhSd2WynJKsTsHPN9xHLnkFdiosUT63lPxIV5SnV4LscxE3oYj81AcWMn+Dqx6M2MrRK87ZhKzDi9Id+5G9EbWwg7dY8DY6UVd6SqE0IIMWMkuBFCiFnjwVZXx7FppNRUPI/dbh/9K88M2apE2bsba8QgAzpbLXQplWO+9eG26lmnb4Y1pdTvs2Pf34ipUEmzfh3FtS6Gc0vM0WPK7eZZczPukfQ9tJjNdG2ooFyTOHm59zfyYLqTRzaaiFLMi5/XQZ0lDYMuAxIzKCpVsrtptJ4AUOVgMBAe4KiLqdC0UmN14wN8biuGSie5D+pQR686IYQQM2DuhS6AEELEq56WGsyqXNbQOuW0SmUKKpUqylYNBQVe9jY60GvyCNvL58S6O4WCAjV7u0O+72zCUONB19CIIXO4ha1CozPSmK1Bv66SOu2e4DYV2vIKstfVsKcMdrsAACAASURBVNuRi0mrwuv4IdVODVX7cpiofT5SbpWKPIMB594aXG7QZEy5Cs4rlzmLLU2BfzdlNUFRFVXuGlqPDdC6uilkz2dZXRf8Z/b/3979R0V533n/f7onC7YnE82R+oM2ZpLcikllY3dmdwW6myG5j6CFqGBThtzGSb8reG9BbfBOFZMAMSLNQqvC2QXc7zomjZBU8AdZRb6rjncX8W6ZrOnYVnSTTE3FaPBEoHfK0D/m+8fwYwZm+GG06Ph6nDPnwMx1fa7PdV2fz1zX+/r8mAIay1OJis1jb7GT80PSgZMkbBtc82RyDRBHQWM5qVG3eo9ERO5OarkREbkVOo5StA02vWAl+hYkH5tu5YmTTZzqDny/27GX+jgr6f4NPXhw1lVzOS2fnNggoUl0KlnWa9Q0OAdbJaJTycmZRVNZNa5uF9VlTZg2bSJpPDflvb38HiOzpvX97yrDbC7jVNtecpPi/brNeXA3FGNLisdsNhOfZKO4wU3IBh+Pi7J0M+mFjsGuXx1O7LlJxJvNmC1D1g+53UGxea20tu7GipXdrc3sm9VEUUsv1t2ttLa20traSEEcfv+30lqeSv/hiIwxEWvoT2fwtds6ZJ1WBTYiIreSghsRkZuunYaibZA3zmBgPKZZyExroabJf2RHO001LaRlWpgWsPBl3Gd7SbHMD9nqYjRZ4Oxl/Bt7YqyFWKkhNzWXmogcclLHEaZ52jlVXk6bNQtLwDFwUV3txrr7KCeKFxEFtNkzWWHvJX3nIU6cOMGhnen02leQXecOknA7DRuyqYsuoLzQ4gscux3kP11Mu3U3J1pbad6bBfbMIWODhm83dN7P4zi/iAIr1DzfP4YomaIW///N5DZ04Crr/z9wrI6IiEwMdUsTEbnJ2uy5bGMTh1KjgWs3lEZLUTLmosH/rbtbyQtojYnElJ7FtQ1NtKXbiAFoa8J+LYtSUySBo9m7cZ+HSEPoDmWGadPgvJuAhqDIWKy2+dRsO8sTm1IYS8+ygHw/mMbWMuOQgOoalqx84vvjpG4Heyp6yXmrkNS+DRhiUtmU7yIxtw5Xeh6Du+3BVZZLUXs6u/emDrSItdWV4coqpaE/0eh4MjONrDjqJM/U341uyHZD8tB+1onTaCLrmv9x76AhN5nzWUPPQyuteS7KzE0DyxS1DEmyxox/x7a4gkbK1XwjInJLKLgREbmJPK4y8hviqdqbNHLrwChMm96idNHgnXhEsOE3MRZshkzqnFbyTeCsq2aabR8xMKTbVQTTZkF7twdCtN10X7sGprjAFp9uBxVl5zGZ5nOyugaXJZdgvdqC57ub9lN1bMu0cb5qL7kDK1oCx9+4XTiwkD4kcop8MBZTbxPuDojtO5Du6g1ku+Op2pfnl48O3M7LXG55FnNFYBrEXaN7YI8tI4776XafoqG6mga6aW+zkJceS3f1yPs6XBSp5a2kDvzv4VRxAnti9lGVbhxvYiIicgMU3IiI3DQdNFXX8NvfwvMBg9CB583UYGV3q39LRGgjTyjQz0hc+ly27XWQOxf21sdhPRGsacLI3DiodpwlL94UNLxxOx1EzPUfH+ThVHk+TaZNHCqehj1pLYU1i6izjdx+M5hvAzFJuWy63MSzDU6yYkNNRNBLLzB0brdgphmNzGo5heN8Dia/KKsXMBUcomo83eYCeDjvaMKwysaiJiepmfEYARe+bmgBZ7Jl8P/RWmA8rgrK3p1P9G9tpLvyKM5LJWa0UyoiIl+IxtyIiNw0USwqPhE4hfOJnaQBaTtPcOJEzpgCm/GIXmTliZPvUlfXREtaJpagN8+RmFKtTKsvJ/gwlgaqa2aRleLXAcxZwbb6uWzKSyXaEE9u8SIuV1TQcFN+t8aP0cQiHDiH/GiP57cunLNMzPWLHQyL8igviKYue4NfPqKYa5qF0+FiyNwK4xCJyVZIasy0YQHYSBMKhAxsPO047dkkFXaTtc9OeZWDqkXnKUrNpOzU0KkMRETkZlJwIyJyE0UaDBiGvCIH3vfdOrvr8sjb2xZ6NjCgt/ca3d3dfq8QSxssZKY5qag4T1Z68FYZgMjYHIpX9VKRmUlhnRN3RzfdHW6cdYVkrthG9wvFWPsbZTxOKgpriMjZRH9vKoMlh01xLWzbdnTYTGPB892Oq66Q/AqwpobOF4Y4rKsiqMgvpKGtg+7ubjraGthW/C6mnOHjfKJTS6lKb6doRe5AgBNjsTH/ZBH5dW10eDx4un3Bhf1PNcK/29f9rRfoOFVMZnYFbXM30VBXSFJfY1JUfB57Gwow1m3APuyXQEVE5GZRtzQRkT+pbtpdTlq4TC8xIW/6ndueJdHvN1IGflNl2JK+iQVmnTewaMQeY5HE5u7lUPxeflSeT+a2a/RyLw/OjeQyRhYZfDfnkXhwVRdTg5Uqq3+C0aTm5GB/tojqUxby44Pn3D/f9z74BLaq3dhGHKgTSWyund3R2yhb+zRF13p96+UfotAUrGUkkti8cgrcKyjKLcO4N49YYzrlu2FbWTbJ234P985nUVYuL4y3mczTPSzgHKlbGljZfWg+dRv2QMo08vP2UpqXx157iP01xJBeZh9npkREZDwmeb1e70RnQsbH7fb1KzEaNUBVZCjVj/HrbmugrGgbTRFWyktzCRpThLn2hmyeLnISEbeVQ+W+ySBcZWaaFg2dHW3oemU0zc3BFhNJh3MvPyrfg+PsNXpH2NaDOW+NOnbpVlH9EAlN9SM8KLi5A6nyiYSm+iE3xNNNNwZGmC07LKh+iISm+hEe1C1NREQk0oAmMhMRufNpQgEREREREQkLCm5ERETCTF5eHu+++y7d3Tc+QbaIyJ1I3dJERETCzMmTJzl58iQAFosFi8VCSkrKBOdKROTWU3AjImGnoKCAyZMnT3Q2RG4LDocDh8PBq6++isFgIDs7WwOmRSRsqVuaiIjIXWDSpElMmjRporMhInJLqeVGRMJOUVGRnkzLXc1sNgNw7733DnRLs1gsA1PdioiEKwU3IiIiYSYlJWUgoBERuZsouBEREQkzhYWFE50FEZEJoTE3IiIiIiISFhTciIiIiIhIWFBwIyIiIiIiYUHBjYiIiIiIhAUFNyIiIiIiEhYU3IiIiIiISFhQcCMiIiIiImFBwY2IiIiIiIQFBTciIiIiIhIWFNyIiIiIiEhYUHAjIiIiIiJhQcGNiIiIiIiEBQU3IiIiIiISFhTciIjIXa/jaC5mszngldvQMdHZCsFFmdlMmSvUx2WYzWWE+nh0HTjtuSTFmzHnNtAx2vZuIx1Hc4lP34v7RtZtyO3bXxj1GAN4XJSnx1Po6L6hvI6Fq8yM+U448GM1hrLpcZWTHl9I/2ENPC8TrYOjufGk772REuZvpPLlwWXPx+7qOwDuveSWOekvZR0NuQFlor2hkDJniDLoriM7u+GG6sOd7J6JzoCIiMiE6wXSdnIiN3bwvQjDhGVnInlOVZNdbWDrvhPEGyIwcP4mb8FNXXYe3Tl12GJHX3o8DMYUrOkG7r2BdaOijWAwEDnWFSJnYUq30j0r4ga2divcuuP6pxQ5y0S6tZvb5rAGMGBMsZJuGE8J6+ZUcTbvmnZSnBTV99405ppmcS3oPkYy12KiOtOGu7icQks6WWRiK8vHnmcKWLLjVDEb6owUVA1+V7nKzDxfE5jiCnPRsK3EFTRSnho17P1woOBGREQEINKAwXB3BjT+uq9dBtMiTNEGbs3R6Mbt/O0tSTkyJoncmBtcOQKYNm0c+xxFfGbuDW7sVrh1x/VPKiqe2+qwBogkJimX8RUxD9cun6e71/+9CIgwMm1aiK0Y0yndC9saruGxRBObV44trwxH+3ziBpJ18e670RRU2YgZEpGPFri4ysxUj2sf7izqliYiIne9y+dbbnxlj5uGYpuvG1d8EvkNbjwDH/p18TJbsBU34B74sK9rirOdo8U2LGYzZouNYkd7YPrtRym2JRFvNmOxFeNo72U8PK4y0s3pFPan+3/Psze/L7/meJJsZZzq6/PjKjOTXNQCLUUkm0N0ifK4KEs3k17ooB2g2xUyvWFcZZjNz1MD1DxvxmzOZaD3X4cTe1667ziYLaTn2XH6pdPfPcndtpe8dAvmvuNxtH34Mv6b73DaB5aPzyzk6OAJCBSbR2vekCaP3nYcfuc2d6+LwQ5Aw7sWedwNA+cqPimXvW2nxtGlz1cOkuIHy0HAmfa4cZTlkW7xdZu0pOdT178voY7rSOuMpK/72Cl3A8U2C2ZzPJmFDbg9HtwNxdgs/cejjcDUOnDa/beXh905vDD0tjsCj5PLr1vVqF3X/PJgjicpN7CchDKW8gPQe+nEQN7M8UlD6mwHDbn+XVZHqcMdDeSak/FVqWTMA2UhitTycoLGH+0N5OfXcXlWOoW5sUR2NJBrfpqikycpejrBVz9rnsec8DwVTRU8mzC8C62zYi2ZmZkhX4UNox+vO5pX7jgfffSR96OPPprobIjcllQ/5Eb8stTkzTn06Q2s2eNt3RrnTdl6wnupx+vt+fQjb+O+E15fSl3eE5vivGlbm72Xerxeb88lb/PWNG/c1lZvj2+r3lKTyZtmLfDuO/ept6vrU++5fTneONML3sauvuS7Tng3xcV5c/ad837a1eXtutTq3bnJ6k0zmbylvwy5M16TqdT7S6/X6710yJsTF+fNOXTJ6/X21Y+j5d6CQ+e8n3b1eL09l7wntqZ4TZtOeLu8Xq+3p8t7bl+W15S1z3uuq8vb1TOYT9/2LnkP5cR543IOeS8NbO+t0OkFOV5dXc3erSaTd2tzl7erq8t3LPr2c9XOVu+lri5vV9clb+vOVd64uK3eZt/B8n56KMdrSknzrtq0z3vuU98yzVvTvKaUUu8v/ZfJOeTtP5OXDuV44554wfvWLy95u7q6vJ+eO+R968RYznP/ucnxljb3r7vPmxPnX078j0uIc5X1hDdupHM1wFdW4nIG96115yavNc3kNfWv/Gmjt3R3q/dSV4/X6+3ynnsrx2tK2e09N9JxHXGdkXa/1GsyxXmfeOGQ96OuLm/XpRPerSkm76qsLK+1tNX7aVeX99PWUm+aKcW7eyCxvn1YtdPbesmXh0utO72r4uK8W/tP4i9LvSZTmteaU+ptvtTlV+ZzvIOH1a/8eoef03O70/qOU4/X29O3/qp9g+UxhLGUn4+O/8ibakrtK89d3q5Pz3kPFaR5Tav2eX1XlU+9h3KGl4HQdbjH29V1zrsvy+TN2ndu8LyMnFPf94S11Nv8qdfr/fSQN8dv/4efqsDvrrF8l934992dQS03IiJyl/PQ7Rl8smq2pJNnd45xAHM37Zd7MRiNREdCZJSRpHQLUQBtdZS5sijOjyc6EoiMJj4zE2P9UZx+j7ujrTmkx0RhMEQRk24jnZOc7RsB7G6qpimugOL0GKIMBgzRJnKz0sc2LsTjoiy3iPb0KkpTowffn5tCYWoMUYZIiIzGkmqBJqdv0HGkgWkRERARwTSDAUPAhjy4ynIpak+nqjSVgRRjM0OnN0wkhr5xLZEGw8DfbXVlNMUVUJ5rItpgwGCIxpRbTN7cemqa/M7ENRNZBenERPmWic8vxHqthgZnkNYIjxP7Njfp5cVkxkZjMBiIikkl0zL2cQaG9Dzy4vvXTadgUxwtNSeD7lvQc7UpF+NYNuRuoropjoLiwX0z5WaR7n/8o5LIs5mINkQCBmIWLSLuspPzHaGP68jrjMZE3qZUjAYDhmgLmba5nHXNZVOeiSiDgSiTFZvpMs7+xNrqKGuKo6A819el0WAg2pRLcd5c6mua/OqTgfS8POKjDX1lvoBNcS3UnBzDsPduB3sqjH3HKRIio4hJsZJyto6WsYyaH7H8dPPzA2/xx2e/31eeDRiiYkjdlE/a+TLqRmh9C12HIzEYpuGrUtMGz8uIoojPt1NuOk/L5TG0sgVxt7fcaMyNiIjc5SIx5Z7gRF8//253E9WF2Tx/bTf78mJHuRmJwmJNw742k8yzOeRkpRJv9I3a6HA7uXy5hWfNFUPWieNaN/QnbDT632z7jzDuoM1xHtOi2MBxIMa5BA4rDsZN9YZs3PFVQfbh/9J2dC91Te9y9vI13OevAdbRU6zeQLY7nqp9ecQGJNhN29GGcac3qAO38/Lw/SSaubGw7fxloO8YmWKZG7DtWcw1QZP/AR3IsIuWXguFsWOeImCY2LmBoUmU0Qjn3Qyfm+qLnCvoaHNw3rSI2MCVmTtk5Q5nHXvqmnC6O2g//1t+TxyLRkv7Btbp375/0bw3YhqY5jJr4J2IgOLa4XZyedg+QLTvJDJ4FmMJPKxR+A7rGGadc7twcJKmRDObh3xkHcukdSOWn8uc/zn89aKHAteJfJBYUy9N7g4IMVFD6Dp8owyY8qp8ZaeDvm6iwycF6BdXEPi/KWfnXT3mRsGNiIjc9SL9nqgaYtPZlNdGwtomzufFhrqfGWCIz6fuRCanGqqpyPwRZYtKqSq0+GZgMxVwqMqvlWOceoGIYTdLYxlzMw2jcRYtpxyczzH5BSO9/Krq79n6+2zK83aSO82AwV2B+fkxpGg0MqvlFI7zOZgGEvTgLE4i93LWuNMbukfD9/ML6r3GZW7OreaYNseNnquBlUdcu73OxtN751JQXEBW9DQMniZyk5tGTPZG1rlhIfbhZm+kFytVrXljChrH649/BP78FiQ8bm3stdVhLM8nHiCugMbyVIKFK8EClZaiZEaIhehLMmypW5qIiEgwEeO4TTMYic8sZu/eF4h8t46WDoiaa2KW04Hrhn8GJQrj3AhanOcDB223uXCMniEW5ZVTEF1H9oYGBsdMu/n5//dH0rNsmIxRGAyReLrHlkHDojzKC6Kpy95Aw0CC53HU995QeoOimGuaRYvDOaRFpJ3zLlhk8nvM777GNf9Fup04WmZhmhvkts9oYhEOnG3jzI5/DtoDc9TmdMAiU5CuZlEYjTd6riDKOJeIFifnA1fGNbByB07HWeJsWaTGRGMwRMLvuwOPxTA3ss6Ni5prYlaLg6E/udLuO4l+x6ydwMPahu+wjqEDX985dd3oOR2x/Bj5egL8/FcfBa7j+S0uZ4gydqt0nKflWjTT+lvB+if4CPIaOu0z+GZLa21tDfnaPZ6G1TuQghsREbnrebq76e57dbQ1sK2snvl5qb5Wm+5TlOUV4wg6TqEDx94G2jo8gIeO9st0R8wi2gDEWLDNP0lRfh1tHR48nm7anXay7WP/UcbYRVk8+G4Z2xra6Ojuprv9FMVF1WO8QY0mtbSK9PYiVuT2Bzh/ztSvwKkmJx0eD93uo2yrGPuT/OjUUqrS2ylakdsX4EQwbdZ40/Ot4z7vxuPx4AFiUnKIaykit9xJe3c33d3tOMvzKetehTXOr5/TtWqKik/5lulooy6/iJa4HFKCzc1riMO6KoKK/EIa2joGzu3e4CcyqJZthdT1rdt+qpj8ighWWeOCThcdmxLkXP2ogYixtEnFLiLrwXcp29ZAW4dv/08VF1E9cKIjMRjA2dSC2+PB0+HCvq16yNifocd1LOvcRDEp5MS1UJRbjrPdV5faneXkl3UPOWYtbCus89vPfCoihpznUAxxpKRdoyK/mFPt3Xg8HjraGigsPDq2MXIjlh8DC761jD9/68cU9p/DjjYathXzrilEGRsT33lwnz9Pd195H02304HTYhqccjqugMZRAxUPrjIbFXP3UR7XQm7frIEdznLyMjPJqxuc2S42ayez6ipoGMvMeXcgBTciInKXc1GXvYKkxEQSExNZke/AkLWPqvS+J8nX3DhbnLT/Pti6BmbhIH9FAmZzIs9We8jam4cpEsBIevlu8gwNZCcnkJCQSn5dBFkp4/iFxRgbVVWpXKt4nuTEJFbkO4gtLiV9rOtHxpJXXoDJWURumYteHuJbL9qIbsolOSGRFWXXsOaMOTUgkti8cgpMTopyy3B5YrCWvjDO9GJIyUvhWtkKEhI2+ILGqCTK95US6y4mMzGRxKTnKe9OZ7c9N3B8j2kTefEO8lMTSUzOpmHWJvaWJgXtrgORxOba2Z3ZS112MomJSTxbcR7jOJ7Apxdn4al4lqTERFYUXSa1qorcUGN4hp6rbedJ2ppPPCaMs4Kv4n9MbFVVpF6r4PnkRJJW5OOILaZ04FAasOSUktJdxoqEBJI2NGDMGto1a+hxHcs6N1MUSeX7KI11U5yZSGJiEs+Xd5O+2z7kmKVTnOWh4tkkEhNXUHQ5laqqIec5pEji8/exM/4yRSsSSUhI5NmK88TZLCHKwBCjlJ+Iuf+DbcUp9Nat5enERBJX5OMw5nOoPFQZGwsDcateILphLYkJiVSP+myjG+fJk1jG0pIF9PbFJx5XDdtcJnIW9X9vdfN7IMqUS9nevZSlxxCJm73ZNuquxZNfns61bUUhHtrc2SZ5vV7vRGdCxsft9j13MRrHVvBF7iaqHyKh3cn1o6Mhl+SmRSHHHtyW2uykPt9O4Yn8voBXJspYys9tUT88Tsoz92KsKvP9Dk5HA7lFUOCXb3ddJiu2nff9ExHH1kPlJAXsVDtH85+nqOnakFFf9/Lgok2UFyfd8DjAO4EmFBARERH5olzlZNYZKcixEB0JnnYHFfkVRGS9pcBGxi7SRG6dX/taVCrl5YGLGFOqOJEydKp2f9EkFR8lqfhWZfL2puBGRERE5IuKtZLn3Eb+iiJ++3u498EnSM16C3vSDQ/WEAku0hB03Jf4qFvaHei2aDYVuU2pfoiEpvoxcTochaytPj/8g7lZ7Cwc45iRm8i1N5Nt7wb5IGUTezPHMS7stuFib+Y2gu/SXsayS6of4UHBzR1IlU8kNNUPkdBUP0QgLy+PxMREnnjiCQyGwTYQ1Y/woG5pIiIiInLXOHnyJCdPngTAYrFgsVhISUmZ4FzJzaLgRkRE5C5SUFDA5MmTJzobIrcFh8OBw+Hg1VdfxWAwkJ2drZabO5x+50ZERERE7mqTJk1i0qRJE50NuQnUciMiInIXKSoq0pNpuauZzWYA7r333oFuaRaLZWDMjdzZFNyIiIiIyF0jJSVlIKCR8KPgRkRERETuGoWFhROdBbmFNOZGRERERETCgoIbEREREREJCwpuREREREQkLCi4ERERERGRsKDgRkREREREwoKCGxERERERCQsKbkREREREJCwouBERERERkbCg4EZERERERMKCghsREREREQkLCm5ERERERCQsKLgREREREZGwoOBGRERERETCgoIbEREREREJCwpuREREREQkLNwz0RkI5rPPoKdnonNx+/rDH6YCcPnyBGfkNjZ5Mtx//0Tn4tZQ/RiZ6sfoVD/uXqofo1P9uHupfozuTqgfk7xer3eiM9Hvs8/gww/hy1+GP//zic6N3Mn++Ef4/HN4+OHbvxKOleqH3CyqHyKhqX6IhHYn1I/bquXmww/BaJzoXEg4+fBDMJkmOhc3h+qH3GyqHyKhqX6IhHY714/bZszNZ5/Bl7982zQiSZj48pe9fPbZROfii1P9kFtB9UMkNNUPkdBu5/px2wQ3f/iDV02lctNFRMDnn9/5X+qqH3IrqH6IhKb6IRLa7Vw/bpvgRkRERERE5ItQcCMiIiIiImFBwY2IiIiIiIQFBTciIiIiIhIWFNyIiIiIiEhYUHAjIiIiIiJhQcGNiIiIiIiEBQU3IiIiIiISFhTciIiIiIhIWFBwIyIiIiIiYUHBjYiIiIiIhAUFNyIiIiIiEhYU3IiIiIiISFhQcCMiIiIiImFBwY2IiIiIiIQFBTciIiIiIhIWFNyIiIiIiEhYUHAjIiIiIiJhQcGNiIiIiIiEBQU3IiIiIiISFhTciIiIiIhIWFBwIyIiIiIiYUHBjYiIiIiIhAUFN7dCz3U6O32vKxdO09zsoPmwncrK7WzOsbA0ycjm5p6AVa7UL2Nl/ScD/7fumERUVOBrR+vwTV2sWcbqerffO2eofGYjQ5IPzF5zCTkB6/hpLSFqZS1XxrG7Ev6ClcfBcvIJ9SsnERW1gEpXqBTc1DwziaioZdQPKVw9Fw6wI8fCwsd86X4jycaOw+fo9F+meT2PRS1kh2tIwb5o55moBbzaGrzAD833N5Js2F3Xb+gYBPLts3+dlbtT57E1oct+a0lgnfnGQnJ2NHLRf5EgZXTHsRDfzwBXalnpn+Zj83gmz47Lr8JcqV8W4nt8eLn11b+FfCNqElFRRpJyKhmsZiOU8yu1rPSvz60lRD02j6VLLSxdOJOoHaeH77/fa3iabmpW2qi/OMLFS8Tf0DII0HOaHUmTSNpxmqElaVx1Ncr/ehWsHvTQumMhUUklDL38jLgd+ZNQcHPTuKlZ2lchvnY/j8Qt5LnnlpG1chmb7Y24Ll5nyuwFLLGWUPrGGV40TR41xZcbvXR0+F6NLwdZoLORHfZ5ZC8xDr51rJKdx3/I0q8NraQl9MdGkxMyePLIRur7r7CtJb4L0VBXalmpQEf6rT3CBx98NviqWMYMv4+nT/+Enfsdwy4oALgOUHV2BtOHvN3ZvJGlcetpnbOGsoOX+eCDj3hj3QJaNz+KJefAwE3g5IRCyle52bKl1u/G8BMOb9nI2eztvGgeoT4N5Psjdll7eD0xg5qLoRcXGbvrNO8/TUaGkdrmMyGW+QFv99WZ93atIfLwYpI3D6kn/mXUNpnD31k47AFYoKWUt/jS/NXB7SR8vJHE1XbGXawv2lm9tISLCds5+MFnfPDeAdbNb6T57HgT6mMqpPqgg+oXFw6+t7iGX3UMXsv6r2dzZs/0W9HN4RwLuUf2kPWXXwoZEAV7wCcyyE197jKqZtewa91CAq8K46urvpedJTOCL3mx3sZzVUaqd20k8PIzlu3Irabg5qYxsvxtvy/wX5/jYN+X/AOL17NmzXqsSywkJCxkzoypTOmrDP1P7b6edZAjWbPG8QXeQ/PrJczeWjhYOjFPtQAAGHBJREFUsXpOY7efw/RyC78buJB8xsG1T7C8OgOzX17T1lo4cvzczT4IEs6mTGVKwCvw0mHKsDF/p53jnUNX7KF5fwnTM2yY/N/ubOTV1XZmVzt4c10GCXNmMmWKkdgl63mzpYXlZ5ezeeBJ2VSeWredxcc3suOYr+Wl81ghG5otlK61MOKjgoH8GjHbSng54SitF25G643c9a40UnM8A9u6ZUzZWRuixXywzsw22ygr/THTq2pp9q8n/mXUWknpazOpqncwrCr5ibzPt86MOcms21VJxvHtHB7nk2LX4e0cWV7CVutCZk+Z6nsAt+YAa8yjrxtcD12d1+nyjLTMOc42P870yL5/O89Q+YwF+5yNrE14gpcbPwsIhDo++A3lGQ9iWnWE5TecLwl/PbTuyCDr4nreKM9g9tCPx1lX+1/Bri09rSWsznKT/YadtKEbGtN25FZTcHMTTR69MWYY8zovHR2XqV4Mi6sv09HhZd0YvsA7j63n9eklZJvhQo2NpLxaDlfZeaC0kXVsJLfmHD24OZy3jB3Tt1Oe5mvdcdktvm4DL9Vydf8ali6txBU5lYTjG33vb2kkoauSrKUWlmYV4hz/Lsndan4Gtow9HG4eEjh0NlKzMxnb8gUBb188vJ0980t4Oc3IMJMXkr12KUf2+HXhmZ3Bi68Z2bOlktbO09i3VGF6rSTkk7XgrtPZOYPZ06f2/X+aHVGT2HHsDPbV83jMr4tDz4VaNj8zj8f6u/5sruVCyAuVm/rVM3nsme1+XXqu01qZ0dfdzhi4fmsJUVElHHNVsnrhTHUFvUNdPG7HmW3BPGcBi6fbOeYcw53M9Jk8wCd0jrDo9OlGuHo9eCtoMFNmMof38YwYVARZbcpU6LzOOFcLzVnChueWsSFIT4DB7nfJHE7YjjUWwE39hu1M2XqGd9at4ZU3tjNlx0KWbq7FdcVNs93GUssazi5xcLQsefgNq0if0C0pfZ/fSF0NuqFacp/bzuzqWtYF2dBN2458IfdMdAbCSeuOSSRvCfbJQaKyAt9ZXH2ZN9P6muU7T3P8CLB8rFtyc7iqiubjjcTZf8vH07N5+8XrHL66kbIZk2FdLVfzLHwtF1a94eCdJYPN/7E2Bwdtvr9dO+Zhn59BbOxUDh5cM76dFRlmJk9af8CGHQe4uMQ2cCNy8XAlx9dupHT6J9QMLNvDx2ePkrC8MuQNy4w5FuY3n+HjHpjddw2JtW3n5do4Vlse5OPpP+ZEsMAopOu4akqomrOdg7GBnzRXbWd+diMtpVOJnAK4trM0sZb51bWc2GVkco+bY6+vIe65Ht57xzYkz4NPDBsPrid2sm9bx/Lm8foUO++8V8ts3Bx7PYOlr8/kvVf6W5ocVFUtIPudc5ROmcyUceyJ3A7cNNceZfmLB4DJJGTMJLGmkXUJy0Y+l54eupjJlBEehnk812F68KfGQfX0cJXHeSBy9EX9zX5yPcu3LOeZvBoqXslgzhcthKZCqt/MgPplfP3jwI/M67x0rBu6gpG0Xfa+v3vo7JnMfNtGXK9bSfw6wN+wtrqEpx6Azs7rEDl1xOMmd6eu5r6WlEbH8JYU4Ibr6rANOdix2srF7BYOBr323KTtyBemlpubyNcKE/j6VfXSgRYZ/9dAYIPv5u/s/Me5WmtjdeWZMTytM2J9x0vHeyWY+Q7Vuyp56qk1lFln0nmhEXuODbtnPdXVNq5uXsgzedupP3aGi5099DSv5xuvngauc/ViG7OnuLEv7WvNWWph6dKFfCPKSJL/e5sb9VRZYEvcKAOCfeO51l717x5zhsNVn7B2+dCuY9e5chHuixzhTmX6TB7AzRX/vjmTF7I8O4mPP/4tGetsxIZcOVi+7ycxF7LXWoYFVFefXM8rTxn7uiFc55j9+3heq6QsbQEzpkxlyowFpG0tYe3ZjewP6DbaE/yJocvOFudGSl9J9gVmk408ZVvDnJ0HcPoN1n4yu4SnZg/v4id3ANcBqprXsaRv/GRsgo35tQcCu5sN0dN5msoNG+l5eQ0JQe92euhs3c6GLT28bLOM7Yao5xyHN29k//JClo+pQviZsYxdjfsx/9d64uLmsbrSEfS7vr/LdMDr61aOjGUbzo0kPzaThf7XlIUzfd8fF+ysXrqMlSstLM3ZSM3+01ydvIB17/yBjo4/8MF7lZg9ZzhcZeO5pHk88rVJRFk2DhvALXez07z+0iaci9ewPNTYyzHX1U0kB500x8f5+nq2OJdiWz50PM94tyO3mlpuJlqPg6otM8lYO5nm6SWsvbqRzYcrsY5WGS7WkrO6keUHa1ky/TqdrbVs2HKa6RkZ2LY2Yuu7KqalreHCsQPY969hz4VKDi5ZyHznOS4yk6v/tZQHHlhA2kEHtv7sNK/nO60ZvD1sMJ7c9dYe4YN1fgOFI6cGWWgBS7KnkrzfgS3WAs217Jy+nsZYCLxrmsyU6dDlGeEu5eonfMw8Zvt3O+tsZMeWMyxenETtjkqyn9zY11Iylnz3cPVsI5UbFrB63Rl2+bVoLjf7d5lzc/YIPGkN7EbH5HnMN11h/8VP6B/A1nVkI6v39/DaewcCnhhe+fg0Z8++TWLU94dkZqlfsJaBebw3o3LbcDXbObuqhPn95S92Icunfx/74UKWWP2f6m4iOWpT398P8mS2nV3rFgR+v26JI6q/1f+BJLLLa1k3YsE+SNbXJ+HrEDCD/7a8kLfLByf4mDxlZuhVh5q9jK0Hk1nbbGfL6xl8ff96Gg8Gdu1ZXP4bKpYMSfPqAXLiDoyevqmQF2dv5MKSRl5JmAz00PzqPFpnz4Q5Nnb1dyXod+UAq5c6WOtYT+zsBSyZvYAl1vUDH/f03FgXcAlXC3ntjQyOPGdl9Y55HAxy7zL2uvoD3v5go9/45MAWddNrB1h+ZBlZq0uYc3B497exb0duNQU3N0noLmkQrFsaAItrqEvYTuvaSrKnF9LMVGLXHKCMT6ivWcoDQ6eW8uPav57jV6dyIddCFfDky43s6utadrFmGQtrIcG0jKeeWsB8cwZbnxq8gJgvVHLhipGzzQtZPuMT6lfOYsvVJ5iNm+arM0mY3chfbunhgQQjnRdOYn1jbOOAJMz1DbAczewEG/Nz7RxftwBqfsiTts+CdD2byhzzEzTvd3DROrSbl8+VCw7OLs7ggYF3emh+3cYe03beq5jJ7LhENtiTObpmQZC1g+d7SoKNV148zSM7G3l5SfDtQg9cZUxPze97YAHTp2/nSKubtNl+F6+eHlhcw3tvBhnYCvBxsDfljtHjYP/O9+HqYh7ZM+SzqgO4rOv9WhX9bphCdavye3AQGWIQc6CllLfYWTI9eJpTphjhiJuPgcAhab6HCcODg8nMSFhDxcFknlz5EBvsyTj861VkkLrfEySXzkKyllbClXNgHUw7YYmNLf3dcy4eoLJ5PS++0vfxlVpWBmkF2j/swYBvBlFdi2SYBzIof8PN0uRl5D5wml3+XcbGVVf7JhIIuSEjaeUH+HhpHM/lGmnc5ff9Pq7tyK2mbmk3SbAuaSN1S+vo8NLxZgYPzV7DVtsCArpK95zD6VzI7GB3RZ2NbF5dy5R1n/Dr/zzH0YMODh50kD1/cJHZ1gM4qkuwmqG5Zj0bavxnRZvJnITTXHB+wsXFxoGpeW1bHRzcugZs2zlYXYiJNWw9WMuLAdNbiYzB7GXYMvZQU2Pn8PEfYH0yeEA0+8k1LD6+kapjQWYu6zlN1c7TrLIlD9yc9bQWsrlqAeVbM5g9xcKL5dl8/FLh4JTmYzVSaxEA85i/Cva3DpnGs+ccZ52PkzDH7wn2fBvlb6znYlYGO/z6ysyYY2H+kUbOqjtCWOpxNlJ7dRXV730WOD36iX/mybN2mgNmLfObfSlU1DLK7EzB9M+WFjTNB4wsppbWobOndZ7h+JEneHJ+qJYdI+YlT3B21DoSwvJK3h46FTQQmbCeUs96Xj92jvotlZi3rhm80ZuRwZt+18UTrz3Ok+UfDbleXqZ68VIeeGDYFkUAmGzeyK5qC81DvovHV1fHsqGFrNtVQ0KzldV+v6Vz07cjX4iCmwk2e4ltWNNm53E7+zMWMj/YCj3XudgDnk43rmO12DfbWLpwJnEbHFy5aGdl0jLyKmtxds1k/hIbWyscvBPwZHsmD5gmc+HwAY6YjZp9Rsauc/DHaX2vUDdAU3nS+gOcL32fs2szSAh1tzYjg61vJHP4OwtYWXkA18XrdHa6cR3ezsq4OJpNdl58qi8w6jnN6xt+SORrJVj7Cu2Upzby2uKDvLTlwMhjwgby+wkXjpWwesMeFq8aaealqSTYthH50hry6s9wpfM6nVfOUL95I7UJw8c1+C6qRqqSLYMX1dhlZD+5hw0b7Liu9NDTc52LzdtZWRnk96TkDnOd5vofcjXbxpLZQ6aOjV1GxuL3Q//e05/KjGWsyf6El55bRuWxc1zpvM5FVy2vPreG46s2sqSv8LfusJBj7697n3ChuZItW86xav68cW/yytUzTA85CcJMlpRup/M7j1KVUBl0linw/e7Vhv02Xh7WhUeDbGR0s9PsvPEybHnO1vfQ6xbV1dkZlL+xDbYsI7fefeu2IzdMwc0t1tU1zt/TuFjLhg3XeS17+G93XPX0wMdunNM9/Cwng6rjPUzPKOQNxyf8Z0UyM2bb2PVOCWnTP6F+80L+8rF5vskEWt1+laqH2dZa0qZ/wvyzB6iscXD1i++m3A12LuaRR+73e20n1E8yTU7IYO38JLKXjNxlbPYSO46W7ZjPlvDcX97PI48sZHVVLWc/fpDpcwZ+wAlX1Xp28gO22vzTM5L24o95YP8ado70YwID+Z7F0s0O5rz2G3aljTwmYXLsRt45sQZqM0h85H4eSV7D8TklnNi1jGAzTw+/qBqx7vpPXr6vlue+/iW+9rUFbKifzDrrwiBryx2l08H+PTNYuyTYuMSZPGVdxdXaRiZ2BtjJJGw9R2P2VPZveJSvP3I/yasrubq4lhNlyQPdbuYkZBB5rL/uLWDl66cx7TpD2VOjdz8N1MN/NTvIMPuCoqFTS3s6z1C5eiO89s+Y9y9jZaWDK/7Hp/MM9ZstJNXMo+JgkO47Fx3sPzJk/J3IMJMxr6ulOsFB1uoSWq/curoa0FLkaLoDvhPuLpO8Xq93ojMB0N7u5fPP4f77J010Vr4wV+UCEl963/fP9Cd47e1G1owy6vlK/TI2sJ1XujayY3oJFUsCn1x1HltD3HequMqDrHp7jBefHjethw9QU3uGhHI7aTOg9VUjm51G5sxfhtk0jzmxM7ny6jf4eN3Qvsy+sThZZ9fxtmM7T92h8xhev+5l8mT46lfv7HIVTvVjTK44qNxg46WryVRXlJA2Z7w3WzIWqh9yU/ScoTL3NAnlCzj+HRv2K0aydx1gjWc7Ua+fY9X0qSSsK+yrx9e5cLiS13e4WfzGdmZUJfPq1WTWZa9hSexgPQ8cxzqDhNcaeXvNgj/pRDeqHyKh3c71Q8HNrdBznc6+R1djGxwqt8rtXPnGI6zqh9w2VD/ktuV3HZ2o37dR/RAJ7XauH5ot7VaYrB8aExERuWG6jorIDdKYGxERERERCQsKbkREREREJCwouBERERERkbCg4EZERERERMKCghsREREREQkLCm5ERERERCQsKLgREREREZGwoOBGRERERETCgoIbEREREREJCwpuREREREQkLCi4ERERERGRsKDgRkREREREwoKCGxERERERCQsKbkREREREJCwouBERERERkbCg4EZERERERMKCghsREREREQkLCm5ERERERCQsKLgREREREZGwoOBGRERERETCgoIbEREREREJC7dNcPOlL03ij3+c6FxIuOnthS9/edJEZ+MLU/2QW0H1QyQ01Q+R0G7n+nHbBDf33w+ff357HiS5c33++STuv3+ic/HFqX7IraD6IRKa6odIaLdz/bhnojPg7+GH4cMP4ctfhsjIic6N3Mk8Hvj8c1+ZCheqH3KzqH6IhKb6IRLanVA/Jnm9Xu9EZ2Kozz6DP/xhonMhd7IvfYnb9onCF6X6IV+U6odIaKofIqHdCfXjtgxuRERERERExuu2GXMjIiIiIiLyRSi4ERERERGRsKDgRkREREREwoKCGxERERERCQsKbkREREREJCwouBERERERkbCg4EZERERERMKCghsREREREQkLCm5ERERERCQsKLgREREREZGwoOBGRERERETCgoIbEREREREJCwpuREREREQkLCi4ERERERGRsKDgRkREREREwoKCGxERERERCQsKbkREREREJCwouBERERERkbCg4EZERERERMKCghsREREREQkLCm5ERERERCQsKLgREREREZGwoOBGRERERETCgoIbEREREREJCwpuREREREQkLCi4ERERERGRsKDgRkREREREwoKCGxERERERCQsKbkREREREJCwouBERERERkbCg4EZERERERMLCPcHe9PzmIDuPfATAw099l/TH7xu2zKc/+wn2X3QA8/jW95J5LPKLZ+aDnx3kUuRDfPWhGB75yk1IUERERERE7hrDgxvPL/nHDa+w5yPgoef56feGBzZ4mtmZ+4/U9kLEM//C2psRh3h+gT33FV+aK9/kV5v+4iYkKiIiIiIid4tJXq/XO/jvJeqylrHxP3pDLB5PycntPPIvz/DtN90jJvy3W4/xr8uhLuspNv5HqKWe5ae/fpEFwKf7/yfxm08B8N83/hO2eRGBi0ZGs+Dxr6L2HBERERERCWaw5abrHDUbVvJKyMDGp/s/dvCDUQKbcfM0s7Po1MC//17yD/z70GW++Sqnqr/KV27ulkVEREREJEz82T8euwTA7468NhDYPLzyTc6e/iH/vW+hxwsOcOHX73P23Sf530Vv8SHAQ8/y0/98nwt+yz38/be58Ov3ufDr9/nX5VF+m4mn5OQxSr4JvtaaN1k18JmHMz96ndpegAii5sXw6MDLiOFW7r2IiIiIiISNP6v++TUAvrZsHRkR8PAz/8RPNv0FkffFk7bYt9D7P/opZzxAVBI/rP8nNi9+mpLqF1kQCQwsZ4Bjrfx6nBn4YP96nh1oCYrmWwVvcqj+HQ7Vv8NPNybQP+Ln4b+KUauNiIiIiIiENNgtzWPgse+t4+8ej+DDn//C1zrzzZcoeSqar0RF4Hm/kX8s+QF7zgHznuXHl37B//E1+hC57J/4f78TQSTQ/fNf8H+AqHl/xSNB5iII9FNeKeplsCOcmz2r1vPov/0z6Rzkf2a9xSWA6Gd59bl5N3G3RUREREQk3NxzoX9Wso8O8cqP3xrbWufe4vu2kZddVfM+Lz0+WkLf5p9rothpPciC8heh5B/Y89EpNn7rSUojr9HRC2BkVdk6/kYzCYiIiIiIyAj8poKO5tF5MSMu/OmHbb6AI2Iajz4cNeKyXxtjBu579Lu89b9XEHnffXjue56fWXfzYW9/YAOPb9zO/3pckY2IiIiIiIxsUuryb3vTCt7BNmorS8fgtM7ffJVT1UvHMAamY9SpoH/yn98l6v1mat74V+qPu+kOtpjByF9/M4EFTz3N2iXzNB20iIiIiIgMc89vzrXxu4F/f4k97TXqQyz86Yd9f/x8B/9PWuhuaWMLlgB+ynf/5i16A2afNvDX3/8h2fcdpHTbUX7TC3S7+fkRN19ZskaBjYiIiIiIBHVP1t8/zwK/Hma/O9fGb0Zbq/cavzl3LeTHvxv2TjwlJ7fA5qfY+B/P8tNfJ/PuYyvZw7dZ+70TlP64HSKm8bffeZEN30vmsfsAEvi7Zes4c/gtqv7lEP/+USx/+xejzlAgIiIiIiJ3qXv+1wvrg3/yzD/hfCHW7412/i33O7zyC+CvXuJgeVLguJr3d2DK3jfuDPzNspfIeP8n8NUY7os8x7/9yzn+LWCJCB5+agWb/+rbpGsuaBERERERCeGekJ9EGrjvvsGWkk9/tgP7L/r+ef8gP7v0NNmPevjg5214vvoQfNR+Yzn4SgwLek+x8c1TIy72tw/9D2w3tgUREREREbkL3FP3oYf0h0caydLFmTe+z3dLWgcH+/e6KE1/ht9Vbefvjv09//CO//LxPBp9g7kxGHn0q/558fC7cyEmGRAREREREfFzD5GBgc3X5sXwKMBXoes3B9m6+TXqz/UCEURE9PoN/ndTm/0M9REMBCWGh+Kx/v13SbnR7mPLtnCo/3d3APglrz22kj03mJyIiIiIiNw9/iz9q/7//gW2+nf4ydbv8tfH/gFT+iu+wCYihiz7m7z6132LffNVflL+NA/TF+x0XyPioafJ/t53SXk02KD/U2x8on9K6Lf4tgIWERERERG5yf5/szemTPa6gScAAAAASUVORK5CYII=;" vertex="1" parent="b5WE40WeDKXt45XbikNv-4">
          <mxGeometry x="-362" y="-43" width="586.64" height="412" as="geometry" />
        </mxCell>
        <mxCell id="b5WE40WeDKXt45XbikNv-8" value="" style="edgeStyle=orthogonalEdgeStyle;rounded=0;orthogonalLoop=1;jettySize=auto;html=1;" edge="1" parent="1" source="b5WE40WeDKXt45XbikNv-6" target="b5WE40WeDKXt45XbikNv-7">
          <mxGeometry relative="1" as="geometry" />
        </mxCell>
        <mxCell id="b5WE40WeDKXt45XbikNv-6" value="开始" style="ellipse;whiteSpace=wrap;html=1;" vertex="1" parent="1">
          <mxGeometry x="33" y="-396" width="120" height="80" as="geometry" />
        </mxCell>
        <mxCell id="b5WE40WeDKXt45XbikNv-10" value="" style="edgeStyle=orthogonalEdgeStyle;rounded=0;orthogonalLoop=1;jettySize=auto;html=1;" edge="1" parent="1" source="b5WE40WeDKXt45XbikNv-7" target="b5WE40WeDKXt45XbikNv-9">
          <mxGeometry relative="1" as="geometry" />
        </mxCell>
        <mxCell id="b5WE40WeDKXt45XbikNv-7" value="手机终端" style="whiteSpace=wrap;html=1;" vertex="1" parent="1">
          <mxGeometry x="33" y="-282" width="120" height="60" as="geometry" />
        </mxCell>
        <mxCell id="b5WE40WeDKXt45XbikNv-12" value="" style="edgeStyle=orthogonalEdgeStyle;rounded=0;orthogonalLoop=1;jettySize=auto;html=1;" edge="1" parent="1" source="b5WE40WeDKXt45XbikNv-9" target="b5WE40WeDKXt45XbikNv-11">
          <mxGeometry relative="1" as="geometry" />
        </mxCell>
        <mxCell id="b5WE40WeDKXt45XbikNv-9" value="MQTT 消息中间件" style="whiteSpace=wrap;html=1;" vertex="1" parent="1">
          <mxGeometry x="33" y="-189" width="120" height="60" as="geometry" />
        </mxCell>
        <mxCell id="b5WE40WeDKXt45XbikNv-14" value="" style="edgeStyle=orthogonalEdgeStyle;rounded=0;orthogonalLoop=1;jettySize=auto;html=1;" edge="1" parent="1" source="b5WE40WeDKXt45XbikNv-11" target="b5WE40WeDKXt45XbikNv-13">
          <mxGeometry relative="1" as="geometry" />
        </mxCell>
        <mxCell id="b5WE40WeDKXt45XbikNv-11" value="AppPush服务" style="whiteSpace=wrap;html=1;" vertex="1" parent="1">
          <mxGeometry x="33" y="-96" width="120" height="60" as="geometry" />
        </mxCell>
        <mxCell id="b5WE40WeDKXt45XbikNv-18" value="" style="edgeStyle=orthogonalEdgeStyle;rounded=0;orthogonalLoop=1;jettySize=auto;html=1;" edge="1" parent="1" source="b5WE40WeDKXt45XbikNv-13" target="b5WE40WeDKXt45XbikNv-17">
          <mxGeometry relative="1" as="geometry" />
        </mxCell>
        <mxCell id="b5WE40WeDKXt45XbikNv-13" value="Kafka" style="whiteSpace=wrap;html=1;" vertex="1" parent="1">
          <mxGeometry x="33" y="-3" width="120" height="60" as="geometry" />
        </mxCell>
        <mxCell id="b5WE40WeDKXt45XbikNv-20" value="" style="edgeStyle=orthogonalEdgeStyle;rounded=0;orthogonalLoop=1;jettySize=auto;html=1;" edge="1" parent="1" source="b5WE40WeDKXt45XbikNv-17" target="b5WE40WeDKXt45XbikNv-19">
          <mxGeometry relative="1" as="geometry" />
        </mxCell>
        <mxCell id="b5WE40WeDKXt45XbikNv-17" value="大数据平台" style="whiteSpace=wrap;html=1;" vertex="1" parent="1">
          <mxGeometry x="33" y="90" width="120" height="60" as="geometry" />
        </mxCell>
        <mxCell id="b5WE40WeDKXt45XbikNv-19" value="结束" style="ellipse;whiteSpace=wrap;html=1;" vertex="1" parent="1">
          <mxGeometry x="33" y="183" width="120" height="60" as="geometry" />
        </mxCell>
        <mxCell id="b5WE40WeDKXt45XbikNv-21" value="Android SDK" style="rounded=1;whiteSpace=wrap;html=1;" vertex="1" parent="1">
          <mxGeometry x="-70.5" y="433" width="98" height="23" as="geometry" />
        </mxCell>
        <mxCell id="b5WE40WeDKXt45XbikNv-22" value="IOS SDK" style="rounded=1;whiteSpace=wrap;html=1;" vertex="1" parent="1">
          <mxGeometry x="48.5" y="433" width="89" height="23" as="geometry" />
        </mxCell>
        <mxCell id="b5WE40WeDKXt45XbikNv-23" value="C SDK" style="rounded=1;whiteSpace=wrap;html=1;" vertex="1" parent="1">
          <mxGeometry x="158.5" y="433" width="91" height="23" as="geometry" />
        </mxCell>
        <mxCell id="b5WE40WeDKXt45XbikNv-25" value="手机应用" style="text;html=1;strokeColor=none;fillColor=none;align=center;verticalAlign=middle;whiteSpace=wrap;rounded=0;" vertex="1" parent="1">
          <mxGeometry x="54.5" y="404" width="60" height="30" as="geometry" />
        </mxCell>
        <mxCell id="b5WE40WeDKXt45XbikNv-26" value="MQTT Broker" style="rounded=1;whiteSpace=wrap;html=1;" vertex="1" parent="1">
          <mxGeometry x="306" y="404" width="120" height="60" as="geometry" />
        </mxCell>
        <mxCell id="b5WE40WeDKXt45XbikNv-27" value="业务云服务" style="rounded=1;whiteSpace=wrap;html=1;" vertex="1" parent="1">
          <mxGeometry x="463" y="404" width="120" height="60" as="geometry" />
        </mxCell>
        <mxCell id="b5WE40WeDKXt45XbikNv-28" value="消息中间件" style="rounded=1;whiteSpace=wrap;html=1;" vertex="1" parent="1">
          <mxGeometry x="620" y="405" width="120" height="60" as="geometry" />
        </mxCell>
        <mxCell id="b5WE40WeDKXt45XbikNv-30" value="大数据平台" style="rounded=1;whiteSpace=wrap;html=1;" vertex="1" parent="1">
          <mxGeometry x="783" y="405" width="120" height="60" as="geometry" />
        </mxCell>
        <mxCell id="b5WE40WeDKXt45XbikNv-31" value="" style="rounded=1;whiteSpace=wrap;html=1;dashed=1;strokeColor=none;strokeWidth=2;fillColor=#E6E6E6;fontFamily=Verdana;fontSize=12;fontColor=#00BEF2" vertex="1" parent="1">
          <mxGeometry x="-97" y="593" width="165" height="670" as="geometry" />
        </mxCell>
        <mxCell id="b5WE40WeDKXt45XbikNv-32" value="" style="rounded=1;whiteSpace=wrap;html=1;dashed=1;strokeColor=none;strokeWidth=2;fillColor=#E6E6E6;fontFamily=Verdana;fontSize=12;fontColor=#00BEF2" vertex="1" parent="1">
          <mxGeometry x="83" y="593" width="353" height="670" as="geometry" />
        </mxCell>
        <mxCell id="b5WE40WeDKXt45XbikNv-33" value="" style="rounded=1;whiteSpace=wrap;html=1;dashed=1;strokeColor=none;strokeWidth=2;fillColor=#E6E6E6;fontFamily=Verdana;fontSize=12;fontColor=#00BEF2" vertex="1" parent="1">
          <mxGeometry x="448" y="593" width="165" height="670" as="geometry" />
        </mxCell>
        <mxCell id="b5WE40WeDKXt45XbikNv-34" value="" style="rounded=1;whiteSpace=wrap;html=1;dashed=1;strokeColor=none;strokeWidth=2;fillColor=#E6E6E6;fontFamily=Verdana;fontSize=12;fontColor=#00BEF2" vertex="1" parent="1">
          <mxGeometry x="914" y="715" width="165" height="670" as="geometry" />
        </mxCell>
        <mxCell id="b5WE40WeDKXt45XbikNv-35" value="" style="rounded=1;whiteSpace=wrap;html=1;dashed=1;strokeColor=none;strokeWidth=2;fillColor=#E6E6E6;fontFamily=Verdana;fontSize=12;fontColor=#00BEF2" vertex="1" parent="1">
          <mxGeometry x="1094" y="715" width="165" height="670" as="geometry" />
        </mxCell>
        <mxCell id="b5WE40WeDKXt45XbikNv-36" value="" style="rounded=1;whiteSpace=wrap;html=1;dashed=1;strokeColor=none;strokeWidth=2;fillColor=#E6E6E6;fontFamily=Verdana;fontSize=12;fontColor=#00BEF2" vertex="1" parent="1">
          <mxGeometry x="1274" y="715" width="165" height="670" as="geometry" />
        </mxCell>
        <mxCell id="b5WE40WeDKXt45XbikNv-37" value="数据产生" style="whiteSpace=wrap;html=1;dashed=1;strokeColor=none;strokeWidth=2;fillColor=#3399FF;fontFamily=Helvetica;fontSize=18;fontColor=#FFFFFF;fontStyle=1" vertex="1" parent="1">
          <mxGeometry x="-97" y="593" width="165" height="60" as="geometry" />
        </mxCell>
        <mxCell id="b5WE40WeDKXt45XbikNv-38" value="数据传输" style="whiteSpace=wrap;html=1;dashed=1;strokeColor=none;strokeWidth=2;fillColor=#3399FF;fontFamily=Helvetica;fontSize=18;fontColor=#FFFFFF;fontStyle=1" vertex="1" parent="1">
          <mxGeometry x="83" y="593" width="352" height="60" as="geometry" />
        </mxCell>
        <mxCell id="b5WE40WeDKXt45XbikNv-39" value="数据处理" style="whiteSpace=wrap;html=1;dashed=1;strokeColor=none;strokeWidth=2;fillColor=#3399FF;fontFamily=Helvetica;fontSize=18;fontColor=#FFFFFF;fontStyle=1" vertex="1" parent="1">
          <mxGeometry x="448" y="593" width="165" height="60" as="geometry" />
        </mxCell>
        <mxCell id="b5WE40WeDKXt45XbikNv-40" value="Data&lt;div&gt;Storage&lt;/div&gt;" style="whiteSpace=wrap;html=1;dashed=1;strokeColor=none;strokeWidth=2;fillColor=#3399FF;fontFamily=Helvetica;fontSize=18;fontColor=#FFFFFF;fontStyle=1" vertex="1" parent="1">
          <mxGeometry x="914" y="715" width="165" height="60" as="geometry" />
        </mxCell>
        <mxCell id="b5WE40WeDKXt45XbikNv-41" value="App&lt;div&gt;Services&lt;/div&gt;" style="whiteSpace=wrap;html=1;dashed=1;strokeColor=none;strokeWidth=2;fillColor=#3399FF;fontFamily=Helvetica;fontSize=18;fontColor=#FFFFFF;fontStyle=1" vertex="1" parent="1">
          <mxGeometry x="1094" y="715" width="165" height="60" as="geometry" />
        </mxCell>
        <mxCell id="b5WE40WeDKXt45XbikNv-42" value="&amp;nbsp; &amp;nbsp;Presentation" style="whiteSpace=wrap;html=1;dashed=1;strokeColor=none;strokeWidth=2;fillColor=#3399FF;fontFamily=Helvetica;fontSize=18;fontColor=#FFFFFF;fontStyle=1" vertex="1" parent="1">
          <mxGeometry x="1274" y="715" width="165" height="60" as="geometry" />
        </mxCell>
        <mxCell id="b5WE40WeDKXt45XbikNv-43" value="" style="shape=mxgraph.arrows.two_way_arrow_horizontal;html=1;verticalLabelPosition=bottom;verticalAlign=top;strokeWidth=2;strokeColor=none;dashed=1;fillColor=#FFFFFF;fontFamily=Verdana;fontSize=12;fontColor=#00BEF2" vertex="1" parent="1">
          <mxGeometry x="43" y="604" width="67" height="39" as="geometry" />
        </mxCell>
        <mxCell id="b5WE40WeDKXt45XbikNv-44" value="" style="shape=mxgraph.arrows.two_way_arrow_horizontal;html=1;verticalLabelPosition=bottom;verticalAlign=top;strokeWidth=2;strokeColor=none;dashed=1;fillColor=#FFFFFF;fontFamily=Verdana;fontSize=12;fontColor=#00BEF2" vertex="1" parent="1">
          <mxGeometry x="409" y="604" width="67" height="39" as="geometry" />
        </mxCell>
        <mxCell id="b5WE40WeDKXt45XbikNv-46" value="" style="shape=mxgraph.arrows.two_way_arrow_horizontal;html=1;verticalLabelPosition=bottom;verticalAlign=top;strokeWidth=2;strokeColor=none;dashed=1;fillColor=#FFFFFF;fontFamily=Verdana;fontSize=12;fontColor=#00BEF2" vertex="1" parent="1">
          <mxGeometry x="1054" y="726" width="67" height="39" as="geometry" />
        </mxCell>
        <mxCell id="b5WE40WeDKXt45XbikNv-47" value="" style="shape=mxgraph.arrows.two_way_arrow_horizontal;html=1;verticalLabelPosition=bottom;verticalAlign=top;strokeWidth=2;strokeColor=none;dashed=1;fillColor=#FFFFFF;fontFamily=Verdana;fontSize=12;fontColor=#00BEF2" vertex="1" parent="1">
          <mxGeometry x="1234" y="726" width="67" height="39" as="geometry" />
        </mxCell>
        <mxCell id="b5WE40WeDKXt45XbikNv-49" value="" style="verticalLabelPosition=bottom;html=1;verticalAlign=top;strokeColor=none;fillColor=#3399FF;shape=mxgraph.azure.tablet;dashed=1;fontFamily=Helvetica;fontSize=14;fontColor=#004C99" vertex="1" parent="1">
          <mxGeometry x="-71" y="874" width="50" height="37.5" as="geometry" />
        </mxCell>
        <mxCell id="b5WE40WeDKXt45XbikNv-50" value="" style="verticalLabelPosition=bottom;html=1;verticalAlign=top;strokeColor=none;fillColor=#3399FF;shape=mxgraph.azure.mobile;dashed=1;fontFamily=Helvetica;fontSize=14;fontColor=#004C99" vertex="1" parent="1">
          <mxGeometry x="9" y="868" width="35" height="50" as="geometry" />
        </mxCell>
        <mxCell id="b5WE40WeDKXt45XbikNv-51" value="SDK" style="verticalLabelPosition=bottom;html=1;verticalAlign=top;strokeColor=none;fillColor=#3399FF;shape=mxgraph.azure.laptop;dashed=1;fontFamily=Helvetica;fontSize=14;fontColor=#004C99" vertex="1" parent="1">
          <mxGeometry x="-41" y="924" width="50" height="30" as="geometry" />
        </mxCell>
        <mxCell id="b5WE40WeDKXt45XbikNv-52" value="应用" style="verticalLabelPosition=bottom;html=1;verticalAlign=top;strokeColor=none;fillColor=#3399FF;shape=mxgraph.azure.mobile_services;dashed=1;fontFamily=Helvetica;fontSize=14;fontColor=#004C99" vertex="1" parent="1">
          <mxGeometry x="-30" y="724" width="32.5" height="50" as="geometry" />
        </mxCell>
        <mxCell id="b5WE40WeDKXt45XbikNv-53" value="Azure Website" style="verticalLabelPosition=bottom;html=1;verticalAlign=top;strokeColor=none;fillColor=#3399FF;shape=mxgraph.azure.azure_website;dashed=1;fontSize=14;fontColor=#004C99" vertex="1" parent="1">
          <mxGeometry x="141" y="731" width="50" height="50" as="geometry" />
        </mxCell>
        <mxCell id="b5WE40WeDKXt45XbikNv-54" value="Mobile Services" style="verticalLabelPosition=bottom;html=1;verticalAlign=top;strokeColor=none;fillColor=#3399FF;shape=mxgraph.azure.mobile_services;dashed=1;fontSize=14;fontColor=#004C99" vertex="1" parent="1">
          <mxGeometry x="150" y="1134" width="32.5" height="50" as="geometry" />
        </mxCell>
        <mxCell id="b5WE40WeDKXt45XbikNv-55" value="Business&amp;nbsp;&lt;div&gt;Analytics&lt;/div&gt;" style="rounded=1;whiteSpace=wrap;html=1;dashed=1;strokeColor=none;strokeWidth=2;fillColor=#FFFFFF;fontFamily=Helvetica;fontSize=14;fontColor=#FFB366;opacity=75;verticalAlign=top;fontStyle=1" vertex="1" parent="1">
          <mxGeometry x="458" y="663" width="140" height="260" as="geometry" />
        </mxCell>
        <mxCell id="b5WE40WeDKXt45XbikNv-56" value="Data&lt;div&gt;Management&lt;/div&gt;" style="rounded=1;whiteSpace=wrap;html=1;dashed=1;strokeColor=none;strokeWidth=2;fillColor=#FFFFFF;fontFamily=Helvetica;fontSize=14;fontColor=#FFB366;opacity=75;verticalAlign=top;fontStyle=1" vertex="1" parent="1">
          <mxGeometry x="461" y="933" width="140" height="320" as="geometry" />
        </mxCell>
        <mxCell id="b5WE40WeDKXt45XbikNv-57" value="SQL Reporting" style="verticalLabelPosition=bottom;html=1;verticalAlign=top;strokeColor=none;fillColor=#3399FF;shape=mxgraph.azure.sql_reporting;dashed=1;fontSize=14;fontColor=#004C99" vertex="1" parent="1">
          <mxGeometry x="508" y="731" width="40" height="50" as="geometry" />
        </mxCell>
        <mxCell id="b5WE40WeDKXt45XbikNv-58" value="HDInsight" style="verticalLabelPosition=bottom;html=1;verticalAlign=top;strokeColor=none;fillColor=#3399FF;shape=mxgraph.azure.hdinsight;dashed=1;fontSize=14;fontColor=#004C99" vertex="1" parent="1">
          <mxGeometry x="506" y="828" width="50" height="50" as="geometry" />
        </mxCell>
        <mxCell id="b5WE40WeDKXt45XbikNv-59" value="SQL Database" style="verticalLabelPosition=bottom;html=1;verticalAlign=top;strokeColor=none;fillColor=#3399FF;shape=mxgraph.azure.sql_database;dashed=1;fontFamily=Helvetica;fontSize=14;fontColor=#004C99" vertex="1" parent="1">
          <mxGeometry x="512" y="1073" width="37.5" height="50" as="geometry" />
        </mxCell>
        <mxCell id="b5WE40WeDKXt45XbikNv-60" value="Tables" style="verticalLabelPosition=bottom;html=1;verticalAlign=top;strokeColor=none;fillColor=#3399FF;shape=mxgraph.azure.storage_table;dashed=1;fontFamily=Helvetica;fontSize=14;fontColor=#004C99" vertex="1" parent="1">
          <mxGeometry x="506" y="1162" width="50" height="45" as="geometry" />
        </mxCell>
        <mxCell id="b5WE40WeDKXt45XbikNv-61" value="Blobs" style="verticalLabelPosition=bottom;html=1;verticalAlign=top;strokeColor=none;fillColor=#3399FF;shape=mxgraph.azure.storage_blob;dashed=1;fontFamily=Helvetica;fontSize=14;fontColor=#004C99" vertex="1" parent="1">
          <mxGeometry x="505" y="996" width="50" height="45" as="geometry" />
        </mxCell>
        <mxCell id="b5WE40WeDKXt45XbikNv-62" value="Storage Management" style="rounded=1;whiteSpace=wrap;html=1;dashed=1;strokeColor=none;strokeWidth=2;fillColor=#FFFFFF;fontFamily=Helvetica;fontSize=14;fontColor=#FFB366;opacity=75;verticalAlign=top;fontStyle=1" vertex="1" parent="1">
          <mxGeometry x="928" y="835" width="140" height="280" as="geometry" />
        </mxCell>
        <mxCell id="b5WE40WeDKXt45XbikNv-63" value="Storage Servers" style="verticalLabelPosition=bottom;html=1;verticalAlign=top;strokeColor=none;fillColor=#3399FF;shape=mxgraph.azure.server_rack;dashed=1;fontFamily=Helvetica;fontSize=14;fontColor=#004C99" vertex="1" parent="1">
          <mxGeometry x="973" y="911" width="50" height="50" as="geometry" />
        </mxCell>
        <mxCell id="b5WE40WeDKXt45XbikNv-64" value="Database" style="verticalLabelPosition=bottom;html=1;verticalAlign=top;strokeColor=none;fillColor=#3399FF;shape=mxgraph.azure.database;dashed=1;fontFamily=Helvetica;fontSize=14;fontColor=#004C99" vertex="1" parent="1">
          <mxGeometry x="978" y="1009" width="37.5" height="50" as="geometry" />
        </mxCell>
        <mxCell id="b5WE40WeDKXt45XbikNv-65" value="Physical&lt;div&gt;Data Storage&lt;/div&gt;" style="verticalLabelPosition=bottom;html=1;verticalAlign=top;strokeColor=none;fillColor=#3399FF;shape=mxgraph.azure.vhd;dashed=1;fontFamily=Helvetica;fontSize=14;fontColor=#004C99" vertex="1" parent="1">
          <mxGeometry x="977" y="1185" width="40" height="50" as="geometry" />
        </mxCell>
        <mxCell id="b5WE40WeDKXt45XbikNv-66" value="Identity" style="rounded=1;whiteSpace=wrap;html=1;dashed=1;strokeColor=none;strokeWidth=2;fillColor=#FFFFFF;fontFamily=Helvetica;fontSize=14;fontColor=#FFB366;opacity=75;verticalAlign=top;fontStyle=1" vertex="1" parent="1">
          <mxGeometry x="1107" y="791" width="140" height="134" as="geometry" />
        </mxCell>
        <mxCell id="b5WE40WeDKXt45XbikNv-67" value="Windows Azure&amp;nbsp;&lt;div&gt;Active Directorry&lt;/div&gt;" style="verticalLabelPosition=bottom;html=1;verticalAlign=top;strokeColor=none;fillColor=#3399FF;shape=mxgraph.azure.azure_active_directory;dashed=1;fontFamily=Helvetica;fontSize=14;fontColor=#004C99" vertex="1" parent="1">
          <mxGeometry x="1153" y="820" width="47.5" height="50" as="geometry" />
        </mxCell>
        <mxCell id="b5WE40WeDKXt45XbikNv-68" value="Performance" style="rounded=1;whiteSpace=wrap;html=1;dashed=1;strokeColor=none;strokeWidth=2;fillColor=#FFFFFF;fontFamily=Helvetica;fontSize=14;fontColor=#FFB366;opacity=75;verticalAlign=top;fontStyle=1" vertex="1" parent="1">
          <mxGeometry x="1108" y="936" width="140" height="199" as="geometry" />
        </mxCell>
        <mxCell id="b5WE40WeDKXt45XbikNv-69" value="Caching" style="verticalLabelPosition=bottom;html=1;verticalAlign=top;strokeColor=none;fillColor=#3399FF;shape=mxgraph.azure.azure_cache;dashed=1;fontFamily=Helvetica;fontSize=14;fontColor=#004C99" vertex="1" parent="1">
          <mxGeometry x="1155" y="971" width="45" height="50" as="geometry" />
        </mxCell>
        <mxCell id="b5WE40WeDKXt45XbikNv-70" value="Content&amp;nbsp;&lt;div&gt;Delivery Network&lt;/div&gt;" style="verticalLabelPosition=bottom;html=1;verticalAlign=top;strokeColor=none;fillColor=#3399FF;shape=mxgraph.azure.content_delivery_network;dashed=1;fontFamily=Helvetica;fontSize=14;fontColor=#004C99" vertex="1" parent="1">
          <mxGeometry x="1153" y="1050" width="50" height="32.5" as="geometry" />
        </mxCell>
        <mxCell id="b5WE40WeDKXt45XbikNv-71" value="Messaging" style="rounded=1;whiteSpace=wrap;html=1;dashed=1;strokeColor=none;strokeWidth=2;fillColor=#FFFFFF;fontFamily=Helvetica;fontSize=14;fontColor=#FFB366;opacity=75;verticalAlign=top;fontStyle=1" vertex="1" parent="1">
          <mxGeometry x="1107" y="1145" width="140" height="229" as="geometry" />
        </mxCell>
        <mxCell id="b5WE40WeDKXt45XbikNv-72" value="Queues" style="verticalLabelPosition=bottom;html=1;verticalAlign=top;strokeColor=none;fillColor=#3399FF;shape=mxgraph.azure.queue_generic;dashed=1;fontFamily=Helvetica;fontSize=14;fontColor=#004C99" vertex="1" parent="1">
          <mxGeometry x="1154" y="1171" width="50" height="15" as="geometry" />
        </mxCell>
        <mxCell id="b5WE40WeDKXt45XbikNv-73" value="Service Bus" style="verticalLabelPosition=bottom;html=1;verticalAlign=top;strokeColor=none;fillColor=#3399FF;shape=mxgraph.azure.service_bus;dashed=1;fontFamily=Helvetica;fontSize=14;fontColor=#004C99" vertex="1" parent="1">
          <mxGeometry x="1158" y="1219" width="45" height="50" as="geometry" />
        </mxCell>
        <mxCell id="b5WE40WeDKXt45XbikNv-74" value="Media Services" style="verticalLabelPosition=bottom;html=1;verticalAlign=top;strokeColor=none;fillColor=#3399FF;shape=mxgraph.azure.media_service;dashed=1;fontFamily=Helvetica;fontSize=14;fontColor=#004C99" vertex="1" parent="1">
          <mxGeometry x="1155" y="1298" width="45" height="50" as="geometry" />
        </mxCell>
        <mxCell id="b5WE40WeDKXt45XbikNv-75" value="Cloud&lt;div&gt;Services&lt;/div&gt;" style="rounded=1;whiteSpace=wrap;html=1;dashed=1;strokeColor=none;strokeWidth=2;fillColor=#FFFFFF;fontFamily=Helvetica;fontSize=14;fontColor=#FFB366;opacity=75;verticalAlign=top;fontStyle=1" vertex="1" parent="1">
          <mxGeometry x="96" y="870" width="140" height="223" as="geometry" />
        </mxCell>
        <mxCell id="b5WE40WeDKXt45XbikNv-76" value="Cloud" style="verticalLabelPosition=bottom;html=1;verticalAlign=top;strokeColor=none;fillColor=#3399FF;shape=mxgraph.azure.cloud;dashed=1;fontSize=14;fontColor=#004C99" vertex="1" parent="1">
          <mxGeometry x="141" y="922" width="50" height="32.5" as="geometry" />
        </mxCell>
        <mxCell id="b5WE40WeDKXt45XbikNv-77" value="Virtual Machine" style="verticalLabelPosition=bottom;html=1;verticalAlign=top;strokeColor=none;fillColor=#3399FF;shape=mxgraph.azure.virtual_machine;dashed=1;fontSize=14;fontColor=#004C99" vertex="1" parent="1">
          <mxGeometry x="141" y="1009" width="50" height="40" as="geometry" />
        </mxCell>
        <mxCell id="b5WE40WeDKXt45XbikNv-78" value="Web Dashboards" style="verticalLabelPosition=bottom;html=1;verticalAlign=top;strokeColor=none;fillColor=#3399FF;shape=mxgraph.azure.laptop;dashed=1;fontFamily=Helvetica;fontSize=14;fontColor=#004C99" vertex="1" parent="1">
          <mxGeometry x="1332" y="896" width="50" height="30" as="geometry" />
        </mxCell>
        <mxCell id="b5WE40WeDKXt45XbikNv-79" value="Certificates" style="verticalLabelPosition=bottom;html=1;verticalAlign=top;strokeColor=none;fillColor=#3399FF;shape=mxgraph.azure.certificate;dashed=1;fontFamily=Helvetica;fontSize=14;fontColor=#004C99" vertex="1" parent="1">
          <mxGeometry x="1332" y="994" width="50" height="40" as="geometry" />
        </mxCell>
        <mxCell id="b5WE40WeDKXt45XbikNv-80" value="Enterprise&lt;div&gt;Services&lt;/div&gt;" style="verticalLabelPosition=bottom;html=1;verticalAlign=top;strokeColor=none;fillColor=#3399FF;shape=mxgraph.azure.enterprise;dashed=1;fontFamily=Helvetica;fontSize=14;fontColor=#004C99" vertex="1" parent="1">
          <mxGeometry x="1342" y="1113" width="30" height="50" as="geometry" />
        </mxCell>
        <mxCell id="b5WE40WeDKXt45XbikNv-81" value="Seminars" style="verticalLabelPosition=bottom;html=1;verticalAlign=top;strokeColor=none;fillColor=#3399FF;shape=mxgraph.azure.user;dashed=1;fontFamily=Helvetica;fontSize=14;fontColor=#004C99" vertex="1" parent="1">
          <mxGeometry x="1335" y="1225" width="47.5" height="50" as="geometry" />
        </mxCell>
        <mxCell id="b5WE40WeDKXt45XbikNv-82" value="" style="arrow;html=1;endArrow=block;endFill=1;strokeColor=none;strokeWidth=4;fontFamily=Helvetica;fontSize=36;fontColor=#FFB366;fillColor=#FFB366;" edge="1" parent="1">
          <mxGeometry width="100" height="100" relative="1" as="geometry">
            <mxPoint x="30" y="756" as="sourcePoint" />
            <mxPoint x="110" y="756" as="targetPoint" />
          </mxGeometry>
        </mxCell>
        <mxCell id="b5WE40WeDKXt45XbikNv-83" value="" style="arrow;html=1;endArrow=block;endFill=1;strokeColor=none;strokeWidth=4;fontFamily=Helvetica;fontSize=36;fontColor=#FFB366;fillColor=#FFB366;opacity=100" edge="1" parent="1">
          <mxGeometry width="100" height="100" relative="1" as="geometry">
            <mxPoint x="210" y="756" as="sourcePoint" />
            <mxPoint x="290" y="756" as="targetPoint" />
          </mxGeometry>
        </mxCell>
        <mxCell id="b5WE40WeDKXt45XbikNv-85" value="" style="arrow;html=1;endArrow=block;endFill=1;strokeColor=none;strokeWidth=4;fontFamily=Helvetica;fontSize=36;fontColor=#FFB366;fillColor=#FFB366;" edge="1" parent="1">
          <mxGeometry width="100" height="100" relative="1" as="geometry">
            <mxPoint x="1048" y="1021" as="sourcePoint" />
            <mxPoint x="1128" y="1021" as="targetPoint" />
          </mxGeometry>
        </mxCell>
        <mxCell id="b5WE40WeDKXt45XbikNv-86" value="" style="arrow;html=1;endArrow=block;endFill=1;strokeColor=none;strokeWidth=4;fontFamily=Helvetica;fontSize=36;fontColor=#FFB366;fillColor=#FFB366;" edge="1" parent="1">
          <mxGeometry width="100" height="100" relative="1" as="geometry">
            <mxPoint x="1048" y="865" as="sourcePoint" />
            <mxPoint x="1128" y="865" as="targetPoint" />
          </mxGeometry>
        </mxCell>
        <mxCell id="b5WE40WeDKXt45XbikNv-87" value="" style="arrow;html=1;endArrow=block;endFill=1;strokeColor=none;strokeWidth=4;fontFamily=Helvetica;fontSize=36;fontColor=#FFB366;fillColor=#FFB366;" edge="1" parent="1">
          <mxGeometry width="100" height="100" relative="1" as="geometry">
            <mxPoint x="1221" y="1033" as="sourcePoint" />
            <mxPoint x="1301" y="1033" as="targetPoint" />
          </mxGeometry>
        </mxCell>
        <mxCell id="b5WE40WeDKXt45XbikNv-88" value="" style="arrow;html=1;endArrow=block;endFill=1;strokeColor=none;strokeWidth=4;fontFamily=Helvetica;fontSize=36;fontColor=#FFB366;fillColor=#FFB366;" edge="1" parent="1">
          <mxGeometry width="100" height="100" relative="1" as="geometry">
            <mxPoint x="1228" y="1259" as="sourcePoint" />
            <mxPoint x="1308" y="1259" as="targetPoint" />
          </mxGeometry>
        </mxCell>
        <mxCell id="b5WE40WeDKXt45XbikNv-89" value="" style="arrow;html=1;endArrow=block;endFill=1;strokeColor=none;strokeWidth=4;fontFamily=Helvetica;fontSize=36;fontColor=#FFB366;fillColor=#FFB366;" edge="1" parent="1">
          <mxGeometry width="100" height="100" relative="1" as="geometry">
            <mxPoint x="1041" y="1234" as="sourcePoint" />
            <mxPoint x="1121" y="1234" as="targetPoint" />
          </mxGeometry>
        </mxCell>
        <mxCell id="b5WE40WeDKXt45XbikNv-91" value="" style="arrow;html=1;endArrow=block;endFill=1;strokeColor=none;strokeWidth=4;fontFamily=Helvetica;fontSize=36;fontColor=#FFB366;fillColor=#FFB366;" edge="1" parent="1">
          <mxGeometry width="100" height="100" relative="1" as="geometry">
            <mxPoint x="210" y="1009" as="sourcePoint" />
            <mxPoint x="290" y="1009" as="targetPoint" />
          </mxGeometry>
        </mxCell>
        <mxCell id="b5WE40WeDKXt45XbikNv-92" value="" style="arrow;html=1;endArrow=block;endFill=1;strokeColor=none;strokeWidth=4;fontFamily=Helvetica;fontSize=36;fontColor=#FFB366;fillColor=#FFB366;" edge="1" parent="1">
          <mxGeometry width="100" height="100" relative="1" as="geometry">
            <mxPoint x="37" y="1161" as="sourcePoint" />
            <mxPoint x="117" y="1161" as="targetPoint" />
          </mxGeometry>
        </mxCell>
      </root>
    </mxGraphModel>
  </diagram>
</mxfile>
